solid ascii
 facet normal 0.281662 0.222584 -0.93334
  outer loop
   vertex -452.988 -344.043 1445
   vertex -453.223 -344.043 1444.93
   vertex -453.223 -343.746 1445
  endloop
 endfacet
 facet normal 0.0771965 0.231284 -0.969819
  outer loop
   vertex -453.223 -343.746 1445
   vertex -453.223 -344.043 1444.93
   vertex -454.492 -343.322 1445
  endloop
 endfacet
 facet normal 0.0964097 0.288847 -0.952508
  outer loop
   vertex -453.223 -343.746 1445
   vertex -454.492 -343.322 1445
   vertex -453.223 -342.773 1445.29
  endloop
 endfacet
 facet normal 0.125604 0.228232 -0.965471
  outer loop
   vertex -453.223 -342.773 1445.29
   vertex -454.492 -343.322 1445
   vertex -454.492 -342.773 1445.13
  endloop
 endfacet
 facet normal 0.11393 0.469161 -0.875733
  outer loop
   vertex -453.223 -342.773 1445.29
   vertex -454.492 -342.773 1445.13
   vertex -454.492 -342.082 1445.5
  endloop
 endfacet
 facet normal -0.25123 0.45709 -0.853201
  outer loop
   vertex -454.492 -342.082 1445.5
   vertex -454.492 -342.773 1445.13
   vertex -455.75 -342.773 1445.5
  endloop
 endfacet
 facet normal -0.376081 0.684244 -0.624799
  outer loop
   vertex -454.492 -342.082 1445.5
   vertex -455.75 -342.773 1445.5
   vertex -455.762 -342.323 1446
  endloop
 endfacet
 facet normal -0.445985 0.659973 -0.604593
  outer loop
   vertex -455.762 -342.323 1446
   vertex -455.75 -342.773 1445.5
   vertex -455.762 -342.773 1445.51
  endloop
 endfacet
 facet normal -0.684835 0.537318 -0.49223
  outer loop
   vertex -455.762 -342.323 1446
   vertex -455.762 -342.773 1445.51
   vertex -456.115 -342.773 1446
  endloop
 endfacet
 facet normal -0.788235 0.240224 -0.56655
  outer loop
   vertex -456.115 -342.773 1446
   vertex -455.762 -342.773 1445.51
   vertex -456.142 -344.043 1445.5
  endloop
 endfacet
 facet normal -0.874555 0.194 -0.44443
  outer loop
   vertex -456.115 -342.773 1446
   vertex -456.142 -344.043 1445.5
   vertex -456.396 -344.043 1446
  endloop
 endfacet
 facet normal -0.873506 -0.199856 -0.443897
  outer loop
   vertex -456.396 -344.043 1446
   vertex -456.142 -344.043 1445.5
   vertex -455.852 -345.313 1445.5
  endloop
 endfacet
 facet normal -0.807436 -0.118747 -0.577881
  outer loop
   vertex -456.396 -344.043 1446
   vertex -455.852 -345.313 1445.5
   vertex -456.21 -345.313 1446
  endloop
 endfacet
 facet normal -0.701468 -0.505865 -0.502039
  outer loop
   vertex -456.21 -345.313 1446
   vertex -455.852 -345.313 1445.5
   vertex -455.762 -345.438 1445.5
  endloop
 endfacet
 facet normal -0.718275 -0.44927 -0.53126
  outer loop
   vertex -456.21 -345.313 1446
   vertex -455.762 -345.438 1445.5
   vertex -455.762 -346.029 1446
  endloop
 endfacet
 facet normal -0.542462 -0.542462 -0.641459
  outer loop
   vertex -455.762 -346.029 1446
   vertex -455.762 -345.438 1445.5
   vertex -455.209 -346.582 1446
  endloop
 endfacet
 facet normal -0.534079 -0.534079 -0.655378
  outer loop
   vertex -455.762 -346.029 1446
   vertex -455.209 -346.582 1446
   vertex -455.762 -346.582 1446.45
  endloop
 endfacet
 facet normal -0.444473 -0.710605 -0.545421
  outer loop
   vertex -455.762 -346.582 1446.45
   vertex -455.209 -346.582 1446
   vertex -454.492 -347.03 1446
  endloop
 endfacet
 facet normal -0.447679 -0.632683 -0.631898
  outer loop
   vertex -455.762 -346.582 1446.45
   vertex -454.492 -347.03 1446
   vertex -455.762 -346.631 1446.5
  endloop
 endfacet
 facet normal -0.374944 -0.896262 -0.236921
  outer loop
   vertex -455.762 -346.631 1446.5
   vertex -454.492 -347.03 1446
   vertex -454.492 -347.162 1446.5
  endloop
 endfacet
 facet normal -0.361251 -0.863533 -0.351864
  outer loop
   vertex -455.762 -346.631 1446.5
   vertex -454.492 -347.162 1446.5
   vertex -455.762 -346.835 1447
  endloop
 endfacet
 facet normal -0.286507 -0.95243 -0.103881
  outer loop
   vertex -455.762 -346.835 1447
   vertex -454.492 -347.162 1446.5
   vertex -454.492 -347.217 1447
  endloop
 endfacet
 facet normal -0.288066 -0.957611 0
  outer loop
   vertex -455.762 -346.835 1447
   vertex -454.492 -347.217 1447
   vertex -455.762 -346.835 1447.5
  endloop
 endfacet
 facet normal -0.288066 -0.957611 0
  outer loop
   vertex -455.762 -346.835 1447.5
   vertex -454.492 -347.217 1447
   vertex -454.492 -347.217 1447.5
  endloop
 endfacet
 facet normal -0.288066 -0.957611 0
  outer loop
   vertex -455.762 -346.835 1447.5
   vertex -454.492 -347.217 1447.5
   vertex -455.762 -346.835 1448
  endloop
 endfacet
 facet normal -0.288066 -0.957611 0
  outer loop
   vertex -455.762 -346.835 1448
   vertex -454.492 -347.217 1447.5
   vertex -454.492 -347.217 1448
  endloop
 endfacet
 facet normal -0.26836 -0.892102 0.363506
  outer loop
   vertex -455.762 -346.835 1448
   vertex -454.492 -347.217 1448
   vertex -455.762 -346.631 1448.5
  endloop
 endfacet
 facet normal -0.383992 -0.917893 0.100114
  outer loop
   vertex -455.762 -346.631 1448.5
   vertex -454.492 -347.217 1448
   vertex -454.492 -347.162 1448.5
  endloop
 endfacet
 facet normal -0.362163 -0.865712 0.345514
  outer loop
   vertex -455.762 -346.631 1448.5
   vertex -454.492 -347.162 1448.5
   vertex -454.492 -346.963 1449
  endloop
 endfacet
 facet normal 0.096245 -0.92445 0.368956
  outer loop
   vertex -454.492 -346.963 1449
   vertex -454.492 -347.162 1448.5
   vertex -453.223 -347.03 1448.5
  endloop
 endfacet
 facet normal 0.117187 -0.900441 0.418894
  outer loop
   vertex -454.492 -346.963 1449
   vertex -453.223 -347.03 1448.5
   vertex -453.223 -346.797 1449
  endloop
 endfacet
 facet normal 0.493311 -0.788686 0.366905
  outer loop
   vertex -453.223 -346.797 1449
   vertex -453.223 -347.03 1448.5
   vertex -452.506 -346.582 1448.5
  endloop
 endfacet
 facet normal 0.51998 -0.740419 0.425911
  outer loop
   vertex -453.223 -346.797 1449
   vertex -452.506 -346.582 1448.5
   vertex -452.916 -346.582 1449
  endloop
 endfacet
 facet normal 0.572478 -0.6726 0.468912
  outer loop
   vertex -452.916 -346.582 1449
   vertex -452.506 -346.582 1448.5
   vertex -451.953 -345.763 1449
  endloop
 endfacet
 facet normal 0.475478 -0.558635 0.679593
  outer loop
   vertex -452.916 -346.582 1449
   vertex -451.953 -345.763 1449
   vertex -453.223 -346.235 1449.5
  endloop
 endfacet
 facet normal 0.46858 -0.724698 0.505219
  outer loop
   vertex -453.223 -346.235 1449.5
   vertex -451.953 -345.763 1449
   vertex -451.953 -345.414 1449.5
  endloop
 endfacet
 facet normal 0.435264 -0.673171 0.597818
  outer loop
   vertex -453.223 -346.235 1449.5
   vertex -451.953 -345.414 1449.5
   vertex -453.223 -345.791 1450
  endloop
 endfacet
 facet normal 0.442279 -0.530409 0.723226
  outer loop
   vertex -453.223 -345.791 1450
   vertex -451.953 -345.414 1449.5
   vertex -451.953 -345.313 1449.57
  endloop
 endfacet
 facet normal 0.448769 -0.610211 0.652878
  outer loop
   vertex -453.223 -345.791 1450
   vertex -451.953 -345.313 1449.57
   vertex -452.572 -345.313 1450
  endloop
 endfacet
 facet normal 0.544518 -0.275608 0.792175
  outer loop
   vertex -452.572 -345.313 1450
   vertex -451.953 -345.313 1449.57
   vertex -451.953 -344.089 1450
  endloop
 endfacet
 facet normal 0.579518 -0.293323 0.760342
  outer loop
   vertex -452.572 -345.313 1450
   vertex -451.953 -344.089 1450
   vertex -453.223 -345.302 1450.5
  endloop
 endfacet
 facet normal 0.600324 -0.327849 0.72947
  outer loop
   vertex -453.223 -345.302 1450.5
   vertex -451.953 -344.089 1450
   vertex -452.535 -344.043 1450.5
  endloop
 endfacet
 facet normal 0.626465 -0.342125 0.700351
  outer loop
   vertex -453.223 -345.302 1450.5
   vertex -452.535 -344.043 1450.5
   vertex -453.223 -344.278 1451
  endloop
 endfacet
 facet normal 0.616354 -0.488457 0.617671
  outer loop
   vertex -453.223 -344.278 1451
   vertex -452.535 -344.043 1450.5
   vertex -453.036 -344.043 1451
  endloop
 endfacet
 facet normal 0.490334 -0.388587 0.780111
  outer loop
   vertex -453.223 -344.278 1451
   vertex -453.036 -344.043 1451
   vertex -453.223 -344.043 1451.12
  endloop
 endfacet
 facet normal 0.525109 -0.162187 0.835438
  outer loop
   vertex -453.223 -344.043 1451.12
   vertex -453.036 -344.043 1451
   vertex -453.223 -342.773 1451.36
  endloop
 endfacet
 facet normal 0.360664 -0.17775 0.915601
  outer loop
   vertex -453.223 -344.043 1451.12
   vertex -453.223 -342.773 1451.36
   vertex -454.195 -344.043 1451.5
  endloop
 endfacet
 facet normal 0.541937 -0.331989 0.772067
  outer loop
   vertex -454.195 -344.043 1451.5
   vertex -453.223 -342.773 1451.36
   vertex -453.417 -342.773 1451.5
  endloop
 endfacet
 facet normal 0.332843 -0.203898 0.920674
  outer loop
   vertex -454.195 -344.043 1451.5
   vertex -453.417 -342.773 1451.5
   vertex -454.492 -342.773 1451.89
  endloop
 endfacet
 facet normal 0.329726 0.243799 0.912054
  outer loop
   vertex -454.492 -342.773 1451.89
   vertex -453.417 -342.773 1451.5
   vertex -454.492 -341.504 1451.55
  endloop
 endfacet
 facet normal -0.0631335 0.257726 0.964153
  outer loop
   vertex -454.492 -342.773 1451.89
   vertex -454.492 -341.504 1451.55
   vertex -455.762 -342.773 1451.81
  endloop
 endfacet
 facet normal -0.0589459 0.253801 0.965459
  outer loop
   vertex -455.762 -342.773 1451.81
   vertex -454.492 -341.504 1451.55
   vertex -455.3 -341.504 1451.5
  endloop
 endfacet
 facet normal -0.0580312 0.253501 0.965593
  outer loop
   vertex -455.762 -342.773 1451.81
   vertex -455.3 -341.504 1451.5
   vertex -455.762 -341.61 1451.5
  endloop
 endfacet
 facet normal -0.140233 0.612589 0.777862
  outer loop
   vertex -455.762 -341.61 1451.5
   vertex -455.3 -341.504 1451.5
   vertex -455.762 -341.504 1451.42
  endloop
 endfacet
 facet normal -0.791435 0.378184 0.480216
  outer loop
   vertex -455.762 -341.61 1451.5
   vertex -455.762 -341.504 1451.42
   vertex -456.015 -341.504 1451
  endloop
 endfacet
 facet normal -0.649821 0.649821 0.39429
  outer loop
   vertex -456.015 -341.504 1451
   vertex -455.762 -341.504 1451.42
   vertex -455.762 -341.251 1451
  endloop
 endfacet
 facet normal -0.707107 0.707107 0
  outer loop
   vertex -456.015 -341.504 1451
   vertex -455.762 -341.251 1451
   vertex -456.015 -341.504 1450.5
  endloop
 endfacet
 facet normal -0.707107 0.707107 0
  outer loop
   vertex -456.015 -341.504 1450.5
   vertex -455.762 -341.251 1451
   vertex -455.762 -341.251 1450.5
  endloop
 endfacet
 facet normal -0.707107 0.707107 0
  outer loop
   vertex -456.015 -341.504 1450.5
   vertex -455.762 -341.251 1450.5
   vertex -456.015 -341.504 1450
  endloop
 endfacet
 facet normal -0.707107 0.707107 0
  outer loop
   vertex -456.015 -341.504 1450
   vertex -455.762 -341.251 1450.5
   vertex -455.762 -341.251 1450
  endloop
 endfacet
 facet normal -0.679466 0.679466 -0.276862
  outer loop
   vertex -456.015 -341.504 1450
   vertex -455.762 -341.251 1450
   vertex -455.811 -341.504 1449.5
  endloop
 endfacet
 facet normal -0.679466 0.679466 -0.276862
  outer loop
   vertex -455.811 -341.504 1449.5
   vertex -455.762 -341.251 1450
   vertex -455.762 -341.455 1449.5
  endloop
 endfacet
 facet normal -0.660433 0.660433 -0.357291
  outer loop
   vertex -455.811 -341.504 1449.5
   vertex -455.762 -341.455 1449.5
   vertex -455.762 -341.504 1449.41
  endloop
 endfacet
 facet normal -0.532615 0.744405 -0.402719
  outer loop
   vertex -455.762 -341.504 1449.41
   vertex -455.762 -341.455 1449.5
   vertex -455.452 -341.504 1449
  endloop
 endfacet
 facet normal -0.623575 0.623575 -0.471495
  outer loop
   vertex -455.762 -341.504 1449.41
   vertex -455.452 -341.504 1449
   vertex -455.762 -341.813 1449
  endloop
 endfacet
 facet normal -0.705176 0.705176 0.0738575
  outer loop
   vertex -455.762 -341.813 1449
   vertex -455.452 -341.504 1449
   vertex -455.505 -341.504 1448.5
  endloop
 endfacet
 facet normal -0.705176 0.705176 0.0738575
  outer loop
   vertex -455.762 -341.813 1449
   vertex -455.505 -341.504 1448.5
   vertex -455.762 -341.761 1448.5
  endloop
 endfacet
 facet normal -0.652207 0.652207 -0.386332
  outer loop
   vertex -455.762 -341.761 1448.5
   vertex -455.505 -341.504 1448.5
   vertex -455.209 -341.504 1448
  endloop
 endfacet
 facet normal -0.652207 0.652207 -0.386332
  outer loop
   vertex -455.762 -341.761 1448.5
   vertex -455.209 -341.504 1448
   vertex -455.762 -342.057 1448
  endloop
 endfacet
 facet normal -0.682506 0.682506 -0.26148
  outer loop
   vertex -455.762 -342.057 1448
   vertex -455.209 -341.504 1448
   vertex -455.017 -341.504 1447.5
  endloop
 endfacet
 facet normal -0.682506 0.682506 -0.26148
  outer loop
   vertex -455.762 -342.057 1448
   vertex -455.017 -341.504 1447.5
   vertex -455.762 -342.249 1447.5
  endloop
 endfacet
 facet normal -0.707107 0.707107 0
  outer loop
   vertex -455.762 -342.249 1447.5
   vertex -455.017 -341.504 1447.5
   vertex -455.017 -341.504 1447
  endloop
 endfacet
 facet normal -0.707107 0.707107 0
  outer loop
   vertex -455.762 -342.249 1447.5
   vertex -455.017 -341.504 1447
   vertex -455.762 -342.249 1447
  endloop
 endfacet
 facet normal -0.707107 0.707107 0
  outer loop
   vertex -455.762 -342.249 1447
   vertex -455.017 -341.504 1447
   vertex -455.017 -341.504 1446.5
  endloop
 endfacet
 facet normal -0.707107 0.707107 0
  outer loop
   vertex -455.762 -342.249 1447
   vertex -455.017 -341.504 1446.5
   vertex -455.762 -342.249 1446.5
  endloop
 endfacet
 facet normal -0.641972 0.641972 -0.419218
  outer loop
   vertex -455.762 -342.249 1446.5
   vertex -455.017 -341.504 1446.5
   vertex -454.69 -341.504 1446
  endloop
 endfacet
 facet normal -0.603327 0.788745 -0.117801
  outer loop
   vertex -455.762 -342.249 1446.5
   vertex -454.69 -341.504 1446
   vertex -455.762 -342.323 1446
  endloop
 endfacet
 facet normal -0.396806 0.518755 -0.757257
  outer loop
   vertex -455.762 -342.323 1446
   vertex -454.69 -341.504 1446
   vertex -454.492 -342.082 1445.5
  endloop
 endfacet
 facet normal 0.0392246 0.165963 -0.985352
  outer loop
   vertex -454.492 -343.322 1445
   vertex -453.223 -344.043 1444.93
   vertex -454.492 -344.043 1444.88
  endloop
 endfacet
 facet normal 0.0396855 -0.0674845 -0.996931
  outer loop
   vertex -454.492 -344.043 1444.88
   vertex -453.223 -344.043 1444.93
   vertex -454.492 -345.313 1444.96
  endloop
 endfacet
 facet normal -0.272594 -0.06498 -0.959932
  outer loop
   vertex -454.492 -344.043 1444.88
   vertex -454.492 -345.313 1444.96
   vertex -454.617 -345.313 1445
  endloop
 endfacet
 facet normal -0.263516 -0.263516 -0.927965
  outer loop
   vertex -454.617 -345.313 1445
   vertex -454.492 -345.313 1444.96
   vertex -454.492 -345.438 1445
  endloop
 endfacet
 facet normal -0.344075 -0.344075 -0.873628
  outer loop
   vertex -454.617 -345.313 1445
   vertex -454.492 -345.438 1445
   vertex -454.617 -346.582 1445.5
  endloop
 endfacet
 facet normal -0.344385 -0.344 -0.873535
  outer loop
   vertex -454.617 -346.582 1445.5
   vertex -454.492 -345.438 1445
   vertex -454.492 -346.582 1445.45
  endloop
 endfacet
 facet normal -0.326917 -0.453327 -0.829229
  outer loop
   vertex -454.617 -346.582 1445.5
   vertex -454.492 -346.582 1445.45
   vertex -454.492 -346.672 1445.5
  endloop
 endfacet
 facet normal 0 -0.479684 -0.877441
  outer loop
   vertex -454.492 -346.672 1445.5
   vertex -454.492 -346.582 1445.45
   vertex -453.223 -346.672 1445.5
  endloop
 endfacet
 facet normal -0 -0.81319 -0.581999
  outer loop
   vertex -454.492 -346.672 1445.5
   vertex -453.223 -346.672 1445.5
   vertex -454.492 -347.03 1446
  endloop
 endfacet
 facet normal 0.0458463 -0.863772 -0.501793
  outer loop
   vertex -454.492 -347.03 1446
   vertex -453.223 -346.672 1445.5
   vertex -453.223 -346.963 1446
  endloop
 endfacet
 facet normal 0.0512469 -0.965522 -0.255229
  outer loop
   vertex -454.492 -347.03 1446
   vertex -453.223 -346.963 1446
   vertex -454.492 -347.162 1446.5
  endloop
 endfacet
 facet normal 0.102633 -0.985808 -0.132853
  outer loop
   vertex -454.492 -347.162 1446.5
   vertex -453.223 -346.963 1446
   vertex -453.223 -347.03 1446.5
  endloop
 endfacet
 facet normal 0.102947 -0.988823 -0.107851
  outer loop
   vertex -454.492 -347.162 1446.5
   vertex -453.223 -347.03 1446.5
   vertex -454.492 -347.217 1447
  endloop
 endfacet
 facet normal 0.0874807 -0.985431 -0.145854
  outer loop
   vertex -454.492 -347.217 1447
   vertex -453.223 -347.03 1446.5
   vertex -453.223 -347.104 1447
  endloop
 endfacet
 facet normal 0.0884263 -0.996083 0
  outer loop
   vertex -454.492 -347.217 1447
   vertex -453.223 -347.104 1447
   vertex -454.492 -347.217 1447.5
  endloop
 endfacet
 facet normal 0.0970398 -0.995035 0.0221065
  outer loop
   vertex -454.492 -347.217 1447.5
   vertex -453.223 -347.104 1447
   vertex -453.223 -347.093 1447.5
  endloop
 endfacet
 facet normal 0.0970635 -0.995278 0
  outer loop
   vertex -454.492 -347.217 1447.5
   vertex -453.223 -347.093 1447.5
   vertex -454.492 -347.217 1448
  endloop
 endfacet
 facet normal 0.0884046 -0.995839 -0.0221244
  outer loop
   vertex -454.492 -347.217 1448
   vertex -453.223 -347.093 1447.5
   vertex -453.223 -347.104 1448
  endloop
 endfacet
 facet normal 0.087909 -0.990256 0.108007
  outer loop
   vertex -454.492 -347.217 1448
   vertex -453.223 -347.104 1448
   vertex -454.492 -347.162 1448.5
  endloop
 endfacet
 facet normal 0.102447 -0.984018 0.145645
  outer loop
   vertex -454.492 -347.162 1448.5
   vertex -453.223 -347.104 1448
   vertex -453.223 -347.03 1448.5
  endloop
 endfacet
 facet normal -0.256843 0.160519 -0.95303
  outer loop
   vertex -454.492 -343.322 1445
   vertex -454.492 -344.043 1444.88
   vertex -454.943 -344.043 1445
  endloop
 endfacet
 facet normal -0.25964 -0.0665889 -0.963407
  outer loop
   vertex -454.943 -344.043 1445
   vertex -454.492 -344.043 1444.88
   vertex -454.617 -345.313 1445
  endloop
 endfacet
 facet normal -0.335989 -0.0861698 -0.937916
  outer loop
   vertex -454.943 -344.043 1445
   vertex -454.617 -345.313 1445
   vertex -455.762 -344.043 1445.29
  endloop
 endfacet
 facet normal -0.364002 -0.114563 -0.924326
  outer loop
   vertex -455.762 -344.043 1445.29
   vertex -454.617 -345.313 1445
   vertex -455.762 -345.313 1445.45
  endloop
 endfacet
 facet normal -0.476872 -0.108115 -0.872298
  outer loop
   vertex -455.762 -344.043 1445.29
   vertex -455.762 -345.313 1445.45
   vertex -455.852 -345.313 1445.5
  endloop
 endfacet
 facet normal -0.453327 -0.326917 -0.829229
  outer loop
   vertex -455.852 -345.313 1445.5
   vertex -455.762 -345.313 1445.45
   vertex -455.762 -345.438 1445.5
  endloop
 endfacet
 facet normal 0.288807 -0.026686 -0.957015
  outer loop
   vertex -452.988 -344.043 1445
   vertex -453.223 -345.313 1444.96
   vertex -453.223 -344.043 1444.93
  endloop
 endfacet
 facet normal -0 -0.0278738 -0.999611
  outer loop
   vertex -453.223 -344.043 1444.93
   vertex -453.223 -345.313 1444.96
   vertex -454.492 -345.313 1444.96
  endloop
 endfacet
 facet normal 0.273095 -0.0236463 -0.961697
  outer loop
   vertex -452.988 -344.043 1445
   vertex -453.098 -345.313 1445
   vertex -453.223 -345.313 1444.96
  endloop
 endfacet
 facet normal 0.263516 -0.263516 -0.927965
  outer loop
   vertex -453.223 -345.313 1444.96
   vertex -453.098 -345.313 1445
   vertex -453.223 -345.438 1445
  endloop
 endfacet
 facet normal 0 -0.273171 -0.961965
  outer loop
   vertex -453.223 -345.313 1444.96
   vertex -453.223 -345.438 1445
   vertex -454.492 -345.313 1444.96
  endloop
 endfacet
 facet normal -0 -0.273171 -0.961965
  outer loop
   vertex -454.492 -345.313 1444.96
   vertex -453.223 -345.438 1445
   vertex -454.492 -345.438 1445
  endloop
 endfacet
 facet normal 0.324306 0.393549 -0.860201
  outer loop
   vertex -452.678 -342.773 1445.5
   vertex -453.223 -342.773 1445.29
   vertex -453.223 -342.325 1445.5
  endloop
 endfacet
 facet normal 0.079316 0.414724 -0.906484
  outer loop
   vertex -453.223 -342.325 1445.5
   vertex -453.223 -342.773 1445.29
   vertex -454.492 -342.082 1445.5
  endloop
 endfacet
 facet normal 0.0912636 0.477195 -0.874046
  outer loop
   vertex -453.223 -342.325 1445.5
   vertex -454.492 -342.082 1445.5
   vertex -453.223 -341.504 1445.95
  endloop
 endfacet
 facet normal 0.0232515 0.580125 -0.814195
  outer loop
   vertex -453.223 -341.504 1445.95
   vertex -454.492 -342.082 1445.5
   vertex -454.492 -341.504 1445.91
  endloop
 endfacet
 facet normal 0.0236502 0.56 -0.828155
  outer loop
   vertex -453.223 -341.504 1445.95
   vertex -454.492 -341.504 1445.91
   vertex -454.492 -341.374 1446
  endloop
 endfacet
 facet normal -0.345125 0.525739 -0.777488
  outer loop
   vertex -454.492 -341.374 1446
   vertex -454.492 -341.504 1445.91
   vertex -454.69 -341.504 1446
  endloop
 endfacet
 facet normal -0.50617 0.771064 -0.386332
  outer loop
   vertex -454.492 -341.374 1446
   vertex -454.69 -341.504 1446
   vertex -454.492 -341.123 1446.5
  endloop
 endfacet
 facet normal -0.548258 0.7558 -0.358021
  outer loop
   vertex -454.492 -341.123 1446.5
   vertex -454.69 -341.504 1446
   vertex -455.017 -341.504 1446.5
  endloop
 endfacet
 facet normal -0.58718 0.809456 0
  outer loop
   vertex -454.492 -341.123 1446.5
   vertex -455.017 -341.504 1446.5
   vertex -454.492 -341.123 1447
  endloop
 endfacet
 facet normal -0.58718 0.809456 0
  outer loop
   vertex -454.492 -341.123 1447
   vertex -455.017 -341.504 1446.5
   vertex -455.017 -341.504 1447
  endloop
 endfacet
 facet normal -0.58718 0.809456 0
  outer loop
   vertex -454.492 -341.123 1447
   vertex -455.017 -341.504 1447
   vertex -454.492 -341.123 1447.5
  endloop
 endfacet
 facet normal -0.58718 0.809456 0
  outer loop
   vertex -454.492 -341.123 1447.5
   vertex -455.017 -341.504 1447
   vertex -455.017 -341.504 1447.5
  endloop
 endfacet
 facet normal -0.583718 0.804682 -0.108444
  outer loop
   vertex -454.492 -341.123 1447.5
   vertex -455.017 -341.504 1447.5
   vertex -454.492 -341.056 1448
  endloop
 endfacet
 facet normal -0.519678 0.83084 -0.199098
  outer loop
   vertex -454.492 -341.056 1448
   vertex -455.017 -341.504 1447.5
   vertex -455.209 -341.504 1448
  endloop
 endfacet
 facet normal -0.526168 0.841216 -0.124509
  outer loop
   vertex -454.492 -341.056 1448
   vertex -455.209 -341.504 1448
   vertex -454.492 -340.982 1448.5
  endloop
 endfacet
 facet normal -0.442274 0.857765 -0.26198
  outer loop
   vertex -454.492 -340.982 1448.5
   vertex -455.209 -341.504 1448
   vertex -455.505 -341.504 1448.5
  endloop
 endfacet
 facet normal -0.458191 0.888634 0.0197426
  outer loop
   vertex -454.492 -340.982 1448.5
   vertex -455.505 -341.504 1448.5
   vertex -454.492 -340.993 1449
  endloop
 endfacet
 facet normal -0.469218 0.881714 0.0491442
  outer loop
   vertex -454.492 -340.993 1449
   vertex -455.505 -341.504 1448.5
   vertex -455.452 -341.504 1449
  endloop
 endfacet
 facet normal -0.439521 0.825909 -0.353123
  outer loop
   vertex -454.492 -340.993 1449
   vertex -455.452 -341.504 1449
   vertex -455.762 -341.455 1449.5
  endloop
 endfacet
 facet normal 0.442404 0.252821 -0.860442
  outer loop
   vertex -451.773 -344.043 1445.5
   vertex -451.953 -344.043 1445.41
   vertex -451.953 -343.728 1445.5
  endloop
 endfacet
 facet normal 0.347889 0.2643 -0.89951
  outer loop
   vertex -451.953 -343.728 1445.5
   vertex -451.953 -344.043 1445.41
   vertex -452.678 -342.773 1445.5
  endloop
 endfacet
 facet normal 0.434449 0.330062 -0.838041
  outer loop
   vertex -451.953 -343.728 1445.5
   vertex -452.678 -342.773 1445.5
   vertex -451.953 -342.773 1445.88
  endloop
 endfacet
 facet normal 0.40987 0.454875 -0.79063
  outer loop
   vertex -451.953 -342.773 1445.88
   vertex -452.678 -342.773 1445.5
   vertex -453.223 -341.504 1445.95
  endloop
 endfacet
 facet normal 0.350601 0.398835 -0.847355
  outer loop
   vertex -451.953 -342.773 1445.88
   vertex -453.223 -341.504 1445.95
   vertex -453.098 -341.504 1446
  endloop
 endfacet
 facet normal 0.33779 0.468404 -0.816392
  outer loop
   vertex -453.098 -341.504 1446
   vertex -453.223 -341.504 1445.95
   vertex -453.223 -341.414 1446
  endloop
 endfacet
 facet normal 0.52986 0.734742 -0.423558
  outer loop
   vertex -453.098 -341.504 1446
   vertex -453.223 -341.414 1446
   vertex -452.698 -341.504 1446.5
  endloop
 endfacet
 facet normal 0.531363 0.732509 -0.425539
  outer loop
   vertex -452.698 -341.504 1446.5
   vertex -453.223 -341.414 1446
   vertex -453.223 -341.123 1446.5
  endloop
 endfacet
 facet normal 0.58718 0.809456 0
  outer loop
   vertex -452.698 -341.504 1446.5
   vertex -453.223 -341.123 1446.5
   vertex -452.698 -341.504 1447
  endloop
 endfacet
 facet normal 0.58718 0.809456 -0
  outer loop
   vertex -452.698 -341.504 1447
   vertex -453.223 -341.123 1446.5
   vertex -453.223 -341.123 1447
  endloop
 endfacet
 facet normal 0.58718 0.809456 0
  outer loop
   vertex -452.698 -341.504 1447
   vertex -453.223 -341.123 1447
   vertex -452.698 -341.504 1447.5
  endloop
 endfacet
 facet normal 0.58718 0.809456 -0
  outer loop
   vertex -452.698 -341.504 1447.5
   vertex -453.223 -341.123 1447
   vertex -453.223 -341.123 1447.5
  endloop
 endfacet
 facet normal 0.58718 0.809456 0
  outer loop
   vertex -452.698 -341.504 1447.5
   vertex -453.223 -341.123 1447.5
   vertex -452.698 -341.504 1448
  endloop
 endfacet
 facet normal 0.58718 0.809456 -0
  outer loop
   vertex -452.698 -341.504 1448
   vertex -453.223 -341.123 1447.5
   vertex -453.223 -341.123 1448
  endloop
 endfacet
 facet normal 0.58718 0.809456 0
  outer loop
   vertex -452.698 -341.504 1448
   vertex -453.223 -341.123 1448
   vertex -452.698 -341.504 1448.5
  endloop
 endfacet
 facet normal 0.58718 0.809456 -0
  outer loop
   vertex -452.698 -341.504 1448.5
   vertex -453.223 -341.123 1448
   vertex -453.223 -341.123 1448.5
  endloop
 endfacet
 facet normal 0.58718 0.809456 0
  outer loop
   vertex -452.698 -341.504 1448.5
   vertex -453.223 -341.123 1448.5
   vertex -452.698 -341.504 1449
  endloop
 endfacet
 facet normal 0.58718 0.809456 -0
  outer loop
   vertex -452.698 -341.504 1449
   vertex -453.223 -341.123 1448.5
   vertex -453.223 -341.123 1449
  endloop
 endfacet
 facet normal 0.584935 0.806361 0.0873619
  outer loop
   vertex -452.698 -341.504 1449
   vertex -453.223 -341.123 1449
   vertex -452.773 -341.504 1449.5
  endloop
 endfacet
 facet normal 0.616699 0.786009 0.0432727
  outer loop
   vertex -452.773 -341.504 1449.5
   vertex -453.223 -341.123 1449
   vertex -453.223 -341.151 1449.5
  endloop
 endfacet
 facet normal 0.60813 0.775087 0.171519
  outer loop
   vertex -452.773 -341.504 1449.5
   vertex -453.223 -341.151 1449.5
   vertex -452.914 -341.504 1450
  endloop
 endfacet
 facet normal 0.676791 0.72975 0.0970535
  outer loop
   vertex -452.914 -341.504 1450
   vertex -453.223 -341.151 1449.5
   vertex -453.223 -341.217 1450
  endloop
 endfacet
 facet normal 0.641116 0.691283 0.333314
  outer loop
   vertex -452.914 -341.504 1450
   vertex -453.223 -341.217 1450
   vertex -453.174 -341.504 1450.5
  endloop
 endfacet
 facet normal 0.670302 0.670302 0.318418
  outer loop
   vertex -453.174 -341.504 1450.5
   vertex -453.223 -341.217 1450
   vertex -453.223 -341.455 1450.5
  endloop
 endfacet
 facet normal 0.577589 0.577589 0.576872
  outer loop
   vertex -453.174 -341.504 1450.5
   vertex -453.223 -341.455 1450.5
   vertex -453.223 -341.504 1450.55
  endloop
 endfacet
 facet normal 0.499041 0.613144 0.612383
  outer loop
   vertex -453.223 -341.504 1450.55
   vertex -453.223 -341.455 1450.5
   vertex -453.776 -341.504 1451
  endloop
 endfacet
 facet normal 0.549359 0.493715 0.674129
  outer loop
   vertex -453.223 -341.504 1450.55
   vertex -453.776 -341.504 1451
   vertex -453.223 -342.119 1451
  endloop
 endfacet
 facet normal 0.484793 0.435689 0.758387
  outer loop
   vertex -453.223 -342.119 1451
   vertex -453.776 -341.504 1451
   vertex -453.417 -342.773 1451.5
  endloop
 endfacet
 facet normal 0.522944 0.414117 0.745008
  outer loop
   vertex -453.223 -342.119 1451
   vertex -453.417 -342.773 1451.5
   vertex -453.223 -342.773 1451.36
  endloop
 endfacet
 facet normal 0.340601 0.260422 -0.903422
  outer loop
   vertex -452.678 -342.773 1445.5
   vertex -451.953 -344.043 1445.41
   vertex -453.223 -342.773 1445.29
  endloop
 endfacet
 facet normal 0.352542 0.273105 -0.895058
  outer loop
   vertex -453.223 -342.773 1445.29
   vertex -451.953 -344.043 1445.41
   vertex -452.988 -344.043 1445
  endloop
 endfacet
 facet normal 0.344716 0.272412 -0.898311
  outer loop
   vertex -453.223 -342.773 1445.29
   vertex -452.988 -344.043 1445
   vertex -453.223 -343.746 1445
  endloop
 endfacet
 facet normal -0.333229 0.153828 -0.930213
  outer loop
   vertex -454.943 -344.043 1445
   vertex -455.762 -344.043 1445.29
   vertex -455.762 -342.793 1445.5
  endloop
 endfacet
 facet normal -0.472153 0.143822 -0.869705
  outer loop
   vertex -455.762 -342.793 1445.5
   vertex -455.762 -344.043 1445.29
   vertex -456.142 -344.043 1445.5
  endloop
 endfacet
 facet normal -0.79623 0.242538 -0.55425
  outer loop
   vertex -455.762 -342.793 1445.5
   vertex -456.142 -344.043 1445.5
   vertex -455.762 -342.773 1445.51
  endloop
 endfacet
 facet normal -0.293242 0.183267 -0.938308
  outer loop
   vertex -454.943 -344.043 1445
   vertex -455.762 -342.793 1445.5
   vertex -454.492 -343.322 1445
  endloop
 endfacet
 facet normal -0.296476 0.175876 -0.938706
  outer loop
   vertex -454.492 -343.322 1445
   vertex -455.762 -342.793 1445.5
   vertex -455.75 -342.773 1445.5
  endloop
 endfacet
 facet normal -0.275471 0.221153 -0.935525
  outer loop
   vertex -454.492 -343.322 1445
   vertex -455.75 -342.773 1445.5
   vertex -454.492 -342.773 1445.13
  endloop
 endfacet
 facet normal 0.45705 -0.0302577 -0.888926
  outer loop
   vertex -451.773 -344.043 1445.5
   vertex -451.953 -345.313 1445.45
   vertex -451.953 -344.043 1445.41
  endloop
 endfacet
 facet normal 0.36629 -0.0316545 -0.929962
  outer loop
   vertex -451.953 -344.043 1445.41
   vertex -451.953 -345.313 1445.45
   vertex -452.988 -344.043 1445
  endloop
 endfacet
 facet normal 0.479408 -0.0338928 -0.876937
  outer loop
   vertex -451.773 -344.043 1445.5
   vertex -451.863 -345.313 1445.5
   vertex -451.953 -345.313 1445.45
  endloop
 endfacet
 facet normal 0.453327 -0.326917 -0.829229
  outer loop
   vertex -451.953 -345.313 1445.45
   vertex -451.863 -345.313 1445.5
   vertex -451.953 -345.438 1445.5
  endloop
 endfacet
 facet normal 0.344034 -0.34438 -0.873523
  outer loop
   vertex -451.953 -345.313 1445.45
   vertex -451.953 -345.438 1445.5
   vertex -453.223 -345.438 1445
  endloop
 endfacet
 facet normal 0.344079 -0.344041 -0.873639
  outer loop
   vertex -453.223 -345.438 1445
   vertex -451.953 -345.438 1445.5
   vertex -453.223 -346.582 1445.45
  endloop
 endfacet
 facet normal -0 -0.366415 -0.930452
  outer loop
   vertex -453.223 -345.438 1445
   vertex -453.223 -346.582 1445.45
   vertex -454.492 -346.582 1445.45
  endloop
 endfacet
 facet normal -0 -0.479684 -0.877441
  outer loop
   vertex -454.492 -346.582 1445.45
   vertex -453.223 -346.582 1445.45
   vertex -453.223 -346.672 1445.5
  endloop
 endfacet
 facet normal 0.36623 -0.0317106 -0.929984
  outer loop
   vertex -452.988 -344.043 1445
   vertex -451.953 -345.313 1445.45
   vertex -453.098 -345.313 1445
  endloop
 endfacet
 facet normal 0.344046 -0.344046 -0.87365
  outer loop
   vertex -453.098 -345.313 1445
   vertex -451.953 -345.313 1445.45
   vertex -453.223 -345.438 1445
  endloop
 endfacet
 facet normal -0.474296 -0.108518 -0.873652
  outer loop
   vertex -455.852 -345.313 1445.5
   vertex -456.142 -344.043 1445.5
   vertex -455.762 -344.043 1445.29
  endloop
 endfacet
 facet normal 0.344339 -0.344339 -0.873419
  outer loop
   vertex -453.223 -346.582 1445.45
   vertex -451.953 -345.438 1445.5
   vertex -453.098 -346.582 1445.5
  endloop
 endfacet
 facet normal 0.615574 -0.615574 -0.492076
  outer loop
   vertex -453.098 -346.582 1445.5
   vertex -451.953 -345.438 1445.5
   vertex -451.953 -345.837 1446
  endloop
 endfacet
 facet normal 0.615574 -0.615574 -0.492076
  outer loop
   vertex -453.098 -346.582 1445.5
   vertex -451.953 -345.837 1446
   vertex -452.698 -346.582 1446
  endloop
 endfacet
 facet normal 0.682506 -0.682506 -0.26148
  outer loop
   vertex -452.698 -346.582 1446
   vertex -451.953 -345.837 1446
   vertex -451.953 -346.029 1446.5
  endloop
 endfacet
 facet normal 0.682506 -0.682506 -0.26148
  outer loop
   vertex -452.698 -346.582 1446
   vertex -451.953 -346.029 1446.5
   vertex -452.506 -346.582 1446.5
  endloop
 endfacet
 facet normal 0.652207 -0.652207 -0.386332
  outer loop
   vertex -452.506 -346.582 1446.5
   vertex -451.953 -346.029 1446.5
   vertex -451.953 -346.325 1447
  endloop
 endfacet
 facet normal 0.652207 -0.652207 -0.386332
  outer loop
   vertex -452.506 -346.582 1446.5
   vertex -451.953 -346.325 1447
   vertex -452.21 -346.582 1447
  endloop
 endfacet
 facet normal 0.705176 -0.705176 0.0738575
  outer loop
   vertex -452.21 -346.582 1447
   vertex -451.953 -346.325 1447
   vertex -451.953 -346.273 1447.5
  endloop
 endfacet
 facet normal 0.705176 -0.705176 0.0738575
  outer loop
   vertex -452.21 -346.582 1447
   vertex -451.953 -346.273 1447.5
   vertex -452.263 -346.582 1447.5
  endloop
 endfacet
 facet normal 0.705176 -0.705176 -0.0738575
  outer loop
   vertex -452.263 -346.582 1447.5
   vertex -451.953 -346.273 1447.5
   vertex -451.953 -346.325 1448
  endloop
 endfacet
 facet normal 0.705176 -0.705176 -0.0738575
  outer loop
   vertex -452.263 -346.582 1447.5
   vertex -451.953 -346.325 1448
   vertex -452.21 -346.582 1448
  endloop
 endfacet
 facet normal 0.652207 -0.652207 0.386332
  outer loop
   vertex -452.21 -346.582 1448
   vertex -451.953 -346.325 1448
   vertex -451.953 -346.029 1448.5
  endloop
 endfacet
 facet normal 0.652207 -0.652207 0.386332
  outer loop
   vertex -452.21 -346.582 1448
   vertex -451.953 -346.029 1448.5
   vertex -452.506 -346.582 1448.5
  endloop
 endfacet
 facet normal 0.661755 -0.661755 0.352365
  outer loop
   vertex -452.506 -346.582 1448.5
   vertex -451.953 -346.029 1448.5
   vertex -451.953 -345.763 1449
  endloop
 endfacet
 facet normal 0 -0.366415 -0.930452
  outer loop
   vertex -453.223 -345.438 1445
   vertex -454.492 -346.582 1445.45
   vertex -454.492 -345.438 1445
  endloop
 endfacet
 facet normal -0.344075 -0.344075 -0.873628
  outer loop
   vertex -454.617 -345.313 1445
   vertex -454.617 -346.582 1445.5
   vertex -455.762 -345.438 1445.5
  endloop
 endfacet
 facet normal -0.542462 -0.542462 -0.641459
  outer loop
   vertex -455.762 -345.438 1445.5
   vertex -454.617 -346.582 1445.5
   vertex -455.209 -346.582 1446
  endloop
 endfacet
 facet normal -0.344 -0.344385 -0.873535
  outer loop
   vertex -454.617 -345.313 1445
   vertex -455.762 -345.438 1445.5
   vertex -455.762 -345.313 1445.45
  endloop
 endfacet
 facet normal 0.326917 -0.453327 -0.829229
  outer loop
   vertex -453.223 -346.582 1445.45
   vertex -453.098 -346.582 1445.5
   vertex -453.223 -346.672 1445.5
  endloop
 endfacet
 facet normal 0.529124 -0.733721 -0.426242
  outer loop
   vertex -453.223 -346.672 1445.5
   vertex -453.098 -346.582 1445.5
   vertex -453.223 -346.963 1446
  endloop
 endfacet
 facet normal 0.0156575 0.497594 -0.867269
  outer loop
   vertex -453.223 -341.504 1445.95
   vertex -454.492 -341.374 1446
   vertex -453.223 -341.414 1446
  endloop
 endfacet
 facet normal 0.0281215 0.893702 -0.447778
  outer loop
   vertex -453.223 -341.414 1446
   vertex -454.492 -341.374 1446
   vertex -454.492 -341.123 1446.5
  endloop
 endfacet
 facet normal 0 0.864681 -0.502321
  outer loop
   vertex -453.223 -341.414 1446
   vertex -454.492 -341.123 1446.5
   vertex -453.223 -341.123 1446.5
  endloop
 endfacet
 facet normal 0 1 0
  outer loop
   vertex -453.223 -341.123 1446.5
   vertex -454.492 -341.123 1446.5
   vertex -454.492 -341.123 1447
  endloop
 endfacet
 facet normal -0 1 0
  outer loop
   vertex -453.223 -341.123 1446.5
   vertex -454.492 -341.123 1447
   vertex -453.223 -341.123 1447
  endloop
 endfacet
 facet normal 0 1 0
  outer loop
   vertex -453.223 -341.123 1447
   vertex -454.492 -341.123 1447
   vertex -454.492 -341.123 1447.5
  endloop
 endfacet
 facet normal -0 1 0
  outer loop
   vertex -453.223 -341.123 1447
   vertex -454.492 -341.123 1447.5
   vertex -453.223 -341.123 1447.5
  endloop
 endfacet
 facet normal 0 0.991041 -0.133558
  outer loop
   vertex -453.223 -341.123 1447.5
   vertex -454.492 -341.123 1447.5
   vertex -454.492 -341.056 1448
  endloop
 endfacet
 facet normal 0.0530023 0.998594 0
  outer loop
   vertex -453.223 -341.123 1447.5
   vertex -454.492 -341.056 1448
   vertex -453.223 -341.123 1448
  endloop
 endfacet
 facet normal 0.0524327 0.987863 -0.146214
  outer loop
   vertex -453.223 -341.123 1448
   vertex -454.492 -341.056 1448
   vertex -454.492 -340.982 1448.5
  endloop
 endfacet
 facet normal 0.110686 0.993855 0
  outer loop
   vertex -453.223 -341.123 1448
   vertex -454.492 -340.982 1448.5
   vertex -453.223 -341.123 1448.5
  endloop
 endfacet
 facet normal 0.110659 0.993613 0.0220749
  outer loop
   vertex -453.223 -341.123 1448.5
   vertex -454.492 -340.982 1448.5
   vertex -454.492 -340.993 1449
  endloop
 endfacet
 facet normal 0.102084 0.994776 0
  outer loop
   vertex -453.223 -341.123 1448.5
   vertex -454.492 -340.993 1449
   vertex -453.223 -341.123 1449
  endloop
 endfacet
 facet normal 0.101128 0.98546 -0.136535
  outer loop
   vertex -453.223 -341.123 1449
   vertex -454.492 -340.993 1449
   vertex -454.492 -340.924 1449.5
  endloop
 endfacet
 facet normal 0.175818 0.982934 0.0541142
  outer loop
   vertex -453.223 -341.123 1449
   vertex -454.492 -340.924 1449.5
   vertex -453.223 -341.151 1449.5
  endloop
 endfacet
 facet normal 0.175069 0.978752 -0.106752
  outer loop
   vertex -453.223 -341.151 1449.5
   vertex -454.492 -340.924 1449.5
   vertex -454.492 -340.869 1450
  endloop
 endfacet
 facet normal 0.262296 0.956565 0.127219
  outer loop
   vertex -453.223 -341.151 1449.5
   vertex -454.492 -340.869 1450
   vertex -453.223 -341.217 1450
  endloop
 endfacet
 facet normal 0.262994 0.959109 0.10461
  outer loop
   vertex -453.223 -341.217 1450
   vertex -454.492 -340.869 1450
   vertex -454.492 -340.924 1450.5
  endloop
 endfacet
 facet normal 0.353478 0.844952 0.401383
  outer loop
   vertex -453.223 -341.217 1450
   vertex -454.492 -340.924 1450.5
   vertex -453.223 -341.455 1450.5
  endloop
 endfacet
 facet normal 0.374944 0.896262 0.236921
  outer loop
   vertex -453.223 -341.455 1450.5
   vertex -454.492 -340.924 1450.5
   vertex -454.492 -341.056 1451
  endloop
 endfacet
 facet normal 0.440548 0.704331 0.556628
  outer loop
   vertex -453.223 -341.455 1450.5
   vertex -454.492 -341.056 1451
   vertex -453.776 -341.504 1451
  endloop
 endfacet
 facet normal 0.44927 0.718275 0.53126
  outer loop
   vertex -453.776 -341.504 1451
   vertex -454.492 -341.056 1451
   vertex -454.367 -341.504 1451.5
  endloop
 endfacet
 facet normal 0.581408 0.435078 0.687512
  outer loop
   vertex -453.776 -341.504 1451
   vertex -454.367 -341.504 1451.5
   vertex -453.417 -342.773 1451.5
  endloop
 endfacet
 facet normal 0.353689 0.264672 0.897136
  outer loop
   vertex -453.417 -342.773 1451.5
   vertex -454.367 -341.504 1451.5
   vertex -454.492 -341.504 1451.55
  endloop
 endfacet
 facet normal 0.520448 0.39853 -0.755187
  outer loop
   vertex -451.773 -342.773 1446
   vertex -451.953 -342.773 1445.88
   vertex -451.953 -342.538 1446
  endloop
 endfacet
 facet normal 0.388714 0.430018 -0.814854
  outer loop
   vertex -451.953 -342.538 1446
   vertex -451.953 -342.773 1445.88
   vertex -453.098 -341.504 1446
  endloop
 endfacet
 facet normal 0.591022 0.653822 -0.47245
  outer loop
   vertex -451.953 -342.538 1446
   vertex -453.098 -341.504 1446
   vertex -452.698 -341.504 1446.5
  endloop
 endfacet
 facet normal 0.367284 0.445704 -0.816365
  outer loop
   vertex -453.223 -341.504 1445.95
   vertex -452.678 -342.773 1445.5
   vertex -453.223 -342.325 1445.5
  endloop
 endfacet
 facet normal -0.339982 0.545716 -0.765902
  outer loop
   vertex -454.492 -342.082 1445.5
   vertex -454.69 -341.504 1446
   vertex -454.492 -341.504 1445.91
  endloop
 endfacet
 facet normal 0.539784 0.30848 -0.783245
  outer loop
   vertex -451.953 -342.773 1445.88
   vertex -451.773 -342.773 1446
   vertex -451.953 -343.728 1445.5
  endloop
 endfacet
 facet normal 0.539794 0.308476 -0.78324
  outer loop
   vertex -451.953 -343.728 1445.5
   vertex -451.773 -342.773 1446
   vertex -451.773 -344.043 1445.5
  endloop
 endfacet
 facet normal 0.75804 0.239001 -0.606839
  outer loop
   vertex -451.773 -344.043 1445.5
   vertex -451.773 -342.773 1446
   vertex -451.373 -344.043 1446
  endloop
 endfacet
 facet normal 0.890676 0.28082 -0.357542
  outer loop
   vertex -451.373 -344.043 1446
   vertex -451.773 -342.773 1446
   vertex -451.572 -342.773 1446.5
  endloop
 endfacet
 facet normal 0.974993 0.195139 -0.106342
  outer loop
   vertex -451.373 -344.043 1446
   vertex -451.572 -342.773 1446.5
   vertex -451.318 -344.043 1446.5
  endloop
 endfacet
 facet normal 0.980553 0.196252 -0
  outer loop
   vertex -451.318 -344.043 1446.5
   vertex -451.572 -342.773 1446.5
   vertex -451.572 -342.773 1447
  endloop
 endfacet
 facet normal 0.980553 0.196252 0
  outer loop
   vertex -451.318 -344.043 1446.5
   vertex -451.572 -342.773 1447
   vertex -451.318 -344.043 1447
  endloop
 endfacet
 facet normal 0.980553 0.196252 -0
  outer loop
   vertex -451.318 -344.043 1447
   vertex -451.572 -342.773 1447
   vertex -451.572 -342.773 1447.5
  endloop
 endfacet
 facet normal 0.980553 0.196252 0
  outer loop
   vertex -451.318 -344.043 1447
   vertex -451.572 -342.773 1447.5
   vertex -451.318 -344.043 1447.5
  endloop
 endfacet
 facet normal 0.980553 0.196252 -0
  outer loop
   vertex -451.318 -344.043 1447.5
   vertex -451.572 -342.773 1447.5
   vertex -451.572 -342.773 1448
  endloop
 endfacet
 facet normal 0.980553 0.196252 0
  outer loop
   vertex -451.318 -344.043 1447.5
   vertex -451.572 -342.773 1448
   vertex -451.318 -344.043 1448
  endloop
 endfacet
 facet normal 0.980553 0.196252 -0
  outer loop
   vertex -451.318 -344.043 1448
   vertex -451.572 -342.773 1448
   vertex -451.572 -342.773 1448.5
  endloop
 endfacet
 facet normal 0.980553 0.196252 0
  outer loop
   vertex -451.318 -344.043 1448
   vertex -451.572 -342.773 1448.5
   vertex -451.318 -344.043 1448.5
  endloop
 endfacet
 facet normal 0.980553 0.196252 -0
  outer loop
   vertex -451.318 -344.043 1448.5
   vertex -451.572 -342.773 1448.5
   vertex -451.572 -342.773 1449
  endloop
 endfacet
 facet normal 0.980553 0.196252 0
  outer loop
   vertex -451.318 -344.043 1448.5
   vertex -451.572 -342.773 1449
   vertex -451.318 -344.043 1449
  endloop
 endfacet
 facet normal 0.932809 0.186696 0.308241
  outer loop
   vertex -451.318 -344.043 1449
   vertex -451.572 -342.773 1449
   vertex -451.738 -342.773 1449.5
  endloop
 endfacet
 facet normal 0.949528 0.229325 0.214026
  outer loop
   vertex -451.318 -344.043 1449
   vertex -451.738 -342.773 1449.5
   vertex -451.431 -344.043 1449.5
  endloop
 endfacet
 facet normal 0.695508 0.167975 0.698607
  outer loop
   vertex -451.431 -344.043 1449.5
   vertex -451.738 -342.773 1449.5
   vertex -451.933 -344.043 1450
  endloop
 endfacet
 facet normal 0.686333 -0.231703 0.689391
  outer loop
   vertex -451.431 -344.043 1449.5
   vertex -451.933 -344.043 1450
   vertex -451.86 -345.313 1449.5
  endloop
 endfacet
 facet normal 0.608433 -0.260014 0.749801
  outer loop
   vertex -451.86 -345.313 1449.5
   vertex -451.933 -344.043 1450
   vertex -451.953 -344.089 1450
  endloop
 endfacet
 facet normal 0.601212 -0.262576 0.754718
  outer loop
   vertex -451.86 -345.313 1449.5
   vertex -451.953 -344.089 1450
   vertex -451.953 -345.313 1449.57
  endloop
 endfacet
 facet normal -0.559923 0.332158 -0.75905
  outer loop
   vertex -455.75 -342.773 1445.5
   vertex -455.762 -342.793 1445.5
   vertex -455.762 -342.773 1445.51
  endloop
 endfacet
 facet normal 0.779478 -0.0551068 -0.624001
  outer loop
   vertex -451.773 -344.043 1445.5
   vertex -451.373 -344.043 1446
   vertex -451.863 -345.313 1445.5
  endloop
 endfacet
 facet normal 0.856803 -0.134679 -0.497745
  outer loop
   vertex -451.863 -345.313 1445.5
   vertex -451.373 -344.043 1446
   vertex -451.572 -345.313 1446
  endloop
 endfacet
 facet normal 0.732509 -0.531363 -0.425539
  outer loop
   vertex -451.863 -345.313 1445.5
   vertex -451.572 -345.313 1446
   vertex -451.953 -345.837 1446
  endloop
 endfacet
 facet normal 0.78972 -0.572864 -0.219474
  outer loop
   vertex -451.953 -345.837 1446
   vertex -451.572 -345.313 1446
   vertex -451.953 -346.029 1446.5
  endloop
 endfacet
 facet normal 0.734742 -0.52986 -0.423558
  outer loop
   vertex -451.953 -345.438 1445.5
   vertex -451.863 -345.313 1445.5
   vertex -451.953 -345.837 1446
  endloop
 endfacet
 facet normal 0.531539 -0.732752 -0.4249
  outer loop
   vertex -453.098 -346.582 1445.5
   vertex -452.698 -346.582 1446
   vertex -453.223 -346.963 1446
  endloop
 endfacet
 facet normal 0.583718 -0.804682 -0.108444
  outer loop
   vertex -453.223 -346.963 1446
   vertex -452.698 -346.582 1446
   vertex -453.223 -347.03 1446.5
  endloop
 endfacet
 facet normal -0.481061 -0.667074 -0.568852
  outer loop
   vertex -454.617 -346.582 1445.5
   vertex -454.492 -346.672 1445.5
   vertex -455.209 -346.582 1446
  endloop
 endfacet
 facet normal -0.453362 -0.724818 -0.518751
  outer loop
   vertex -455.209 -346.582 1446
   vertex -454.492 -346.672 1445.5
   vertex -454.492 -347.03 1446
  endloop
 endfacet
 facet normal 0.766304 0.555878 -0.322147
  outer loop
   vertex -451.572 -342.773 1446.5
   vertex -451.953 -342.538 1446
   vertex -451.953 -342.249 1446.5
  endloop
 endfacet
 facet normal 0.6543 0.6543 -0.379186
  outer loop
   vertex -451.953 -342.249 1446.5
   vertex -451.953 -342.538 1446
   vertex -452.698 -341.504 1446.5
  endloop
 endfacet
 facet normal 0.707107 0.707107 -0
  outer loop
   vertex -451.953 -342.249 1446.5
   vertex -452.698 -341.504 1446.5
   vertex -452.698 -341.504 1447
  endloop
 endfacet
 facet normal 0.756467 0.579261 -0.303667
  outer loop
   vertex -451.773 -342.773 1446
   vertex -451.953 -342.538 1446
   vertex -451.572 -342.773 1446.5
  endloop
 endfacet
 facet normal -0.783423 0.614671 -0.0918029
  outer loop
   vertex -455.762 -342.323 1446
   vertex -456.115 -342.773 1446
   vertex -455.762 -342.249 1446.5
  endloop
 endfacet
 facet normal -0.808654 0.586598 -0.0445194
  outer loop
   vertex -455.762 -342.249 1446.5
   vertex -456.115 -342.773 1446
   vertex -456.142 -342.773 1446.5
  endloop
 endfacet
 facet normal -0.809456 0.58718 0
  outer loop
   vertex -455.762 -342.249 1446.5
   vertex -456.142 -342.773 1446.5
   vertex -455.762 -342.249 1447
  endloop
 endfacet
 facet normal -0.809456 0.58718 0
  outer loop
   vertex -455.762 -342.249 1447
   vertex -456.142 -342.773 1446.5
   vertex -456.142 -342.773 1447
  endloop
 endfacet
 facet normal -0.809456 0.58718 0
  outer loop
   vertex -455.762 -342.249 1447
   vertex -456.142 -342.773 1447
   vertex -455.762 -342.249 1447.5
  endloop
 endfacet
 facet normal -0.809456 0.58718 0
  outer loop
   vertex -455.762 -342.249 1447.5
   vertex -456.142 -342.773 1447
   vertex -456.142 -342.773 1447.5
  endloop
 endfacet
 facet normal -0.78972 0.572864 -0.219474
  outer loop
   vertex -455.762 -342.249 1447.5
   vertex -456.142 -342.773 1447.5
   vertex -455.762 -342.057 1448
  endloop
 endfacet
 facet normal -0.842333 0.526867 -0.113518
  outer loop
   vertex -455.762 -342.057 1448
   vertex -456.142 -342.773 1447.5
   vertex -456.21 -342.773 1448
  endloop
 endfacet
 facet normal -0.808848 0.505922 -0.299681
  outer loop
   vertex -455.762 -342.057 1448
   vertex -456.21 -342.773 1448
   vertex -455.762 -341.761 1448.5
  endloop
 endfacet
 facet normal -0.881215 0.454366 -0.130429
  outer loop
   vertex -455.762 -341.761 1448.5
   vertex -456.21 -342.773 1448
   vertex -456.284 -342.773 1448.5
  endloop
 endfacet
 facet normal -0.887786 0.457754 0.0479434
  outer loop
   vertex -455.762 -341.761 1448.5
   vertex -456.284 -342.773 1448.5
   vertex -455.762 -341.813 1449
  endloop
 endfacet
 facet normal -0.882611 0.469695 0.0196088
  outer loop
   vertex -455.762 -341.813 1449
   vertex -456.284 -342.773 1448.5
   vertex -456.273 -342.773 1449
  endloop
 endfacet
 facet normal -0.831859 0.442687 -0.334722
  outer loop
   vertex -455.762 -341.813 1449
   vertex -456.273 -342.773 1449
   vertex -455.762 -341.504 1449.41
  endloop
 endfacet
 facet normal -0.784363 0.452454 -0.424336
  outer loop
   vertex -455.762 -341.504 1449.41
   vertex -456.273 -342.773 1449
   vertex -455.811 -341.504 1449.5
  endloop
 endfacet
 facet normal -0.974862 0.216251 -0.0536698
  outer loop
   vertex -456.115 -342.773 1446
   vertex -456.396 -344.043 1446
   vertex -456.142 -342.773 1446.5
  endloop
 endfacet
 facet normal -0.980553 0.196252 0
  outer loop
   vertex -456.142 -342.773 1446.5
   vertex -456.396 -344.043 1446
   vertex -456.396 -344.043 1446.5
  endloop
 endfacet
 facet normal -0.980553 0.196252 0
  outer loop
   vertex -456.142 -342.773 1446.5
   vertex -456.396 -344.043 1446.5
   vertex -456.142 -342.773 1447
  endloop
 endfacet
 facet normal -0.980553 0.196252 0
  outer loop
   vertex -456.142 -342.773 1447
   vertex -456.396 -344.043 1446.5
   vertex -456.396 -344.043 1447
  endloop
 endfacet
 facet normal -0.980553 0.196252 0
  outer loop
   vertex -456.142 -342.773 1447
   vertex -456.396 -344.043 1447
   vertex -456.142 -342.773 1447.5
  endloop
 endfacet
 facet normal -0.980553 0.196252 0
  outer loop
   vertex -456.142 -342.773 1447.5
   vertex -456.396 -344.043 1447
   vertex -456.396 -344.043 1447.5
  endloop
 endfacet
 facet normal -0.972103 0.194561 -0.131006
  outer loop
   vertex -456.142 -342.773 1447.5
   vertex -456.396 -344.043 1447.5
   vertex -456.21 -342.773 1448
  endloop
 endfacet
 facet normal -0.989358 0.145502 0
  outer loop
   vertex -456.21 -342.773 1448
   vertex -456.396 -344.043 1447.5
   vertex -456.396 -344.043 1448
  endloop
 endfacet
 facet normal -0.978918 0.143967 -0.14489
  outer loop
   vertex -456.21 -342.773 1448
   vertex -456.396 -344.043 1448
   vertex -456.284 -342.773 1448.5
  endloop
 endfacet
 facet normal -0.996083 0.0884263 0
  outer loop
   vertex -456.284 -342.773 1448.5
   vertex -456.396 -344.043 1448
   vertex -456.396 -344.043 1448.5
  endloop
 endfacet
 facet normal -0.995839 0.0884046 0.0221244
  outer loop
   vertex -456.284 -342.773 1448.5
   vertex -456.396 -344.043 1448.5
   vertex -456.273 -342.773 1449
  endloop
 endfacet
 facet normal -0.995278 0.0970635 0
  outer loop
   vertex -456.273 -342.773 1449
   vertex -456.396 -344.043 1448.5
   vertex -456.396 -344.043 1449
  endloop
 endfacet
 facet normal -0.985948 0.0961537 -0.136603
  outer loop
   vertex -456.273 -342.773 1449
   vertex -456.396 -344.043 1449
   vertex -456.342 -342.773 1449.5
  endloop
 endfacet
 facet normal -0.999079 0.0429172 0
  outer loop
   vertex -456.342 -342.773 1449.5
   vertex -456.396 -344.043 1449
   vertex -456.396 -344.043 1449.5
  endloop
 endfacet
 facet normal -0.993199 0.0426646 -0.108328
  outer loop
   vertex -456.342 -342.773 1449.5
   vertex -456.396 -344.043 1449.5
   vertex -456.396 -342.773 1450
  endloop
 endfacet
 facet normal -0.993199 -0.0426646 0.108328
  outer loop
   vertex -456.396 -342.773 1450
   vertex -456.396 -344.043 1449.5
   vertex -456.342 -344.043 1450
  endloop
 endfacet
 facet normal -0.999079 -0.0429172 0
  outer loop
   vertex -456.396 -342.773 1450
   vertex -456.342 -344.043 1450
   vertex -456.396 -342.773 1450.5
  endloop
 endfacet
 facet normal -0.942406 -0.156834 0.295422
  outer loop
   vertex -456.396 -342.773 1450.5
   vertex -456.342 -344.043 1450
   vertex -456.185 -344.043 1450.5
  endloop
 endfacet
 facet normal -0.986434 -0.164161 0
  outer loop
   vertex -456.396 -342.773 1450.5
   vertex -456.185 -344.043 1450.5
   vertex -456.396 -342.773 1451
  endloop
 endfacet
 facet normal -0.932468 -0.255689 0.255199
  outer loop
   vertex -456.396 -342.773 1451
   vertex -456.185 -344.043 1450.5
   vertex -456.048 -344.043 1451
  endloop
 endfacet
 facet normal -0.923092 -0.253118 0.289537
  outer loop
   vertex -456.396 -342.773 1451
   vertex -456.048 -344.043 1451
   vertex -456.24 -342.773 1451.5
  endloop
 endfacet
 facet normal -0.785117 -0.325757 0.526757
  outer loop
   vertex -456.24 -342.773 1451.5
   vertex -456.048 -344.043 1451
   vertex -455.762 -344.043 1451.43
  endloop
 endfacet
 facet normal -0.809858 -0.332578 0.483242
  outer loop
   vertex -456.24 -342.773 1451.5
   vertex -455.762 -344.043 1451.43
   vertex -455.762 -343.937 1451.5
  endloop
 endfacet
 facet normal -0.213734 -0.553832 0.804729
  outer loop
   vertex -455.762 -343.937 1451.5
   vertex -455.762 -344.043 1451.43
   vertex -455.488 -344.043 1451.5
  endloop
 endfacet
 facet normal -0.089988 -0.233179 0.968261
  outer loop
   vertex -455.762 -343.937 1451.5
   vertex -455.488 -344.043 1451.5
   vertex -454.492 -344.043 1451.59
  endloop
 endfacet
 facet normal -0.0823717 -0.455705 0.886311
  outer loop
   vertex -454.492 -344.043 1451.59
   vertex -455.488 -344.043 1451.5
   vertex -454.492 -344.223 1451.5
  endloop
 endfacet
 facet normal 0.266681 -0.4407 0.857126
  outer loop
   vertex -454.492 -344.043 1451.59
   vertex -454.492 -344.223 1451.5
   vertex -454.195 -344.043 1451.5
  endloop
 endfacet
 facet normal 0.313487 -0.518048 0.795834
  outer loop
   vertex -454.195 -344.043 1451.5
   vertex -454.492 -344.223 1451.5
   vertex -453.223 -344.043 1451.12
  endloop
 endfacet
 facet normal 0.982186 -0.154387 -0.107127
  outer loop
   vertex -451.373 -344.043 1446
   vertex -451.318 -344.043 1446.5
   vertex -451.572 -345.313 1446
  endloop
 endfacet
 facet normal 0.980679 -0.144226 -0.132162
  outer loop
   vertex -451.572 -345.313 1446
   vertex -451.318 -344.043 1446.5
   vertex -451.505 -345.313 1446.5
  endloop
 endfacet
 facet normal 0.842333 -0.526867 -0.113518
  outer loop
   vertex -451.572 -345.313 1446
   vertex -451.505 -345.313 1446.5
   vertex -451.953 -346.029 1446.5
  endloop
 endfacet
 facet normal 0.808848 -0.505922 -0.299681
  outer loop
   vertex -451.953 -346.029 1446.5
   vertex -451.505 -345.313 1446.5
   vertex -451.953 -346.325 1447
  endloop
 endfacet
 facet normal -0.989358 -0.145502 0
  outer loop
   vertex -456.396 -344.043 1446
   vertex -456.21 -345.313 1446
   vertex -456.396 -344.043 1446.5
  endloop
 endfacet
 facet normal -0.965959 -0.0414945 -0.255345
  outer loop
   vertex -456.396 -344.043 1446.5
   vertex -456.21 -345.313 1446
   vertex -456.342 -345.313 1446.5
  endloop
 endfacet
 facet normal -0.999079 -0.0429172 0
  outer loop
   vertex -456.396 -344.043 1446.5
   vertex -456.342 -345.313 1446.5
   vertex -456.396 -344.043 1447
  endloop
 endfacet
 facet normal -0.994104 0 -0.108427
  outer loop
   vertex -456.396 -344.043 1447
   vertex -456.342 -345.313 1446.5
   vertex -456.396 -345.313 1447
  endloop
 endfacet
 facet normal -1 0 0
  outer loop
   vertex -456.396 -344.043 1447
   vertex -456.396 -345.313 1447
   vertex -456.396 -344.043 1447.5
  endloop
 endfacet
 facet normal -1 0 0
  outer loop
   vertex -456.396 -344.043 1447.5
   vertex -456.396 -345.313 1447
   vertex -456.396 -345.313 1447.5
  endloop
 endfacet
 facet normal -1 0 0
  outer loop
   vertex -456.396 -344.043 1447.5
   vertex -456.396 -345.313 1447.5
   vertex -456.396 -344.043 1448
  endloop
 endfacet
 facet normal -1 0 0
  outer loop
   vertex -456.396 -344.043 1448
   vertex -456.396 -345.313 1447.5
   vertex -456.396 -345.313 1448
  endloop
 endfacet
 facet normal -1 0 0
  outer loop
   vertex -456.396 -344.043 1448
   vertex -456.396 -345.313 1448
   vertex -456.396 -344.043 1448.5
  endloop
 endfacet
 facet normal -0.993199 -0.0426646 0.108328
  outer loop
   vertex -456.396 -344.043 1448.5
   vertex -456.396 -345.313 1448
   vertex -456.342 -345.313 1448.5
  endloop
 endfacet
 facet normal -0.999079 -0.0429172 0
  outer loop
   vertex -456.396 -344.043 1448.5
   vertex -456.342 -345.313 1448.5
   vertex -456.396 -344.043 1449
  endloop
 endfacet
 facet normal -0.957165 -0.140768 0.25302
  outer loop
   vertex -456.396 -344.043 1449
   vertex -456.342 -345.313 1448.5
   vertex -456.21 -345.313 1449
  endloop
 endfacet
 facet normal -0.989358 -0.145502 0
  outer loop
   vertex -456.396 -344.043 1449
   vertex -456.21 -345.313 1449
   vertex -456.396 -344.043 1449.5
  endloop
 endfacet
 facet normal -0.959925 -0.212937 0.182212
  outer loop
   vertex -456.396 -344.043 1449.5
   vertex -456.21 -345.313 1449
   vertex -456.115 -345.313 1449.5
  endloop
 endfacet
 facet normal -0.970781 -0.215345 0.105883
  outer loop
   vertex -456.396 -344.043 1449.5
   vertex -456.115 -345.313 1449.5
   vertex -456.342 -344.043 1450
  endloop
 endfacet
 facet normal -0.84015 -0.322125 0.43633
  outer loop
   vertex -456.342 -344.043 1450
   vertex -456.115 -345.313 1449.5
   vertex -455.855 -345.313 1450
  endloop
 endfacet
 facet normal -0.896123 -0.343586 0.280914
  outer loop
   vertex -456.342 -344.043 1450
   vertex -455.855 -345.313 1450
   vertex -456.185 -344.043 1450.5
  endloop
 endfacet
 facet normal -0.563892 -0.425377 0.70787
  outer loop
   vertex -456.185 -344.043 1450.5
   vertex -455.855 -345.313 1450
   vertex -455.762 -345.313 1450.07
  endloop
 endfacet
 facet normal -0.629088 -0.427473 0.649242
  outer loop
   vertex -456.185 -344.043 1450.5
   vertex -455.762 -345.313 1450.07
   vertex -455.762 -344.666 1450.5
  endloop
 endfacet
 facet normal -0.376126 -0.509541 0.773885
  outer loop
   vertex -455.762 -344.666 1450.5
   vertex -455.762 -345.313 1450.07
   vertex -454.886 -345.313 1450.5
  endloop
 endfacet
 facet normal -0.307681 -0.416818 0.855333
  outer loop
   vertex -455.762 -344.666 1450.5
   vertex -454.886 -345.313 1450.5
   vertex -454.492 -345.313 1450.64
  endloop
 endfacet
 facet normal -0.287815 -0.526302 0.800106
  outer loop
   vertex -454.492 -345.313 1450.64
   vertex -454.886 -345.313 1450.5
   vertex -454.492 -345.528 1450.5
  endloop
 endfacet
 facet normal 0.0956597 -0.547035 0.831626
  outer loop
   vertex -454.492 -345.313 1450.64
   vertex -454.492 -345.528 1450.5
   vertex -453.26 -345.313 1450.5
  endloop
 endfacet
 facet normal 0.121988 -0.697594 0.706033
  outer loop
   vertex -453.26 -345.313 1450.5
   vertex -454.492 -345.528 1450.5
   vertex -453.223 -345.313 1450.49
  endloop
 endfacet
 facet normal 0.147259 -0.501906 0.852294
  outer loop
   vertex -453.26 -345.313 1450.5
   vertex -453.223 -345.313 1450.49
   vertex -453.223 -345.302 1450.5
  endloop
 endfacet
 facet normal 0.547226 -0.424718 0.72122
  outer loop
   vertex -453.223 -345.302 1450.5
   vertex -453.223 -345.313 1450.49
   vertex -452.572 -345.313 1450
  endloop
 endfacet
 facet normal -0.613144 -0.499041 -0.612383
  outer loop
   vertex -455.762 -346.029 1446
   vertex -455.762 -346.582 1446.45
   vertex -455.811 -346.582 1446.5
  endloop
 endfacet
 facet normal -0.577589 -0.577589 -0.576872
  outer loop
   vertex -455.811 -346.582 1446.5
   vertex -455.762 -346.582 1446.45
   vertex -455.762 -346.631 1446.5
  endloop
 endfacet
 facet normal -0.679466 -0.679466 -0.276862
  outer loop
   vertex -455.811 -346.582 1446.5
   vertex -455.762 -346.631 1446.5
   vertex -456.015 -346.582 1447
  endloop
 endfacet
 facet normal -0.679466 -0.679466 -0.276862
  outer loop
   vertex -456.015 -346.582 1447
   vertex -455.762 -346.631 1446.5
   vertex -455.762 -346.835 1447
  endloop
 endfacet
 facet normal -0.707107 -0.707107 0
  outer loop
   vertex -456.015 -346.582 1447
   vertex -455.762 -346.835 1447
   vertex -456.015 -346.582 1447.5
  endloop
 endfacet
 facet normal -0.707107 -0.707107 0
  outer loop
   vertex -456.015 -346.582 1447.5
   vertex -455.762 -346.835 1447
   vertex -455.762 -346.835 1447.5
  endloop
 endfacet
 facet normal -0.707107 -0.707107 0
  outer loop
   vertex -456.015 -346.582 1447.5
   vertex -455.762 -346.835 1447.5
   vertex -456.015 -346.582 1448
  endloop
 endfacet
 facet normal -0.707107 -0.707107 0
  outer loop
   vertex -456.015 -346.582 1448
   vertex -455.762 -346.835 1447.5
   vertex -455.762 -346.835 1448
  endloop
 endfacet
 facet normal -0.679466 -0.679466 0.276862
  outer loop
   vertex -456.015 -346.582 1448
   vertex -455.762 -346.835 1448
   vertex -455.811 -346.582 1448.5
  endloop
 endfacet
 facet normal -0.679466 -0.679466 0.276862
  outer loop
   vertex -455.811 -346.582 1448.5
   vertex -455.762 -346.835 1448
   vertex -455.762 -346.631 1448.5
  endloop
 endfacet
 facet normal -0.577589 -0.577589 0.576872
  outer loop
   vertex -455.811 -346.582 1448.5
   vertex -455.762 -346.631 1448.5
   vertex -455.762 -346.582 1448.55
  endloop
 endfacet
 facet normal -0.459636 -0.628376 0.627597
  outer loop
   vertex -455.762 -346.582 1448.55
   vertex -455.762 -346.631 1448.5
   vertex -455.146 -346.582 1449
  endloop
 endfacet
 facet normal -0.493715 -0.549359 0.674129
  outer loop
   vertex -455.762 -346.582 1448.55
   vertex -455.146 -346.582 1449
   vertex -455.762 -346.029 1449
  endloop
 endfacet
 facet normal -0.466318 -0.518875 0.716461
  outer loop
   vertex -455.762 -346.029 1449
   vertex -455.146 -346.582 1449
   vertex -454.492 -346.582 1449.43
  endloop
 endfacet
 facet normal -0.477824 -0.610671 0.631478
  outer loop
   vertex -455.762 -346.029 1449
   vertex -454.492 -346.582 1449.43
   vertex -454.492 -346.505 1449.5
  endloop
 endfacet
 facet normal 0.131423 -0.689135 0.712616
  outer loop
   vertex -454.492 -346.505 1449.5
   vertex -454.492 -346.582 1449.43
   vertex -453.223 -346.582 1449.19
  endloop
 endfacet
 facet normal 0.140016 -0.657706 0.740147
  outer loop
   vertex -454.492 -346.505 1449.5
   vertex -453.223 -346.582 1449.19
   vertex -453.223 -346.235 1449.5
  endloop
 endfacet
 facet normal 0.422884 -0.601932 0.677382
  outer loop
   vertex -453.223 -346.235 1449.5
   vertex -453.223 -346.582 1449.19
   vertex -452.916 -346.582 1449
  endloop
 endfacet
 facet normal -0.704331 -0.440548 -0.556628
  outer loop
   vertex -455.762 -346.029 1446
   vertex -455.811 -346.582 1446.5
   vertex -456.21 -345.313 1446
  endloop
 endfacet
 facet normal -0.896262 -0.374944 -0.236921
  outer loop
   vertex -456.21 -345.313 1446
   vertex -455.811 -346.582 1446.5
   vertex -456.342 -345.313 1446.5
  endloop
 endfacet
 facet normal 0.519678 -0.83084 -0.199098
  outer loop
   vertex -452.698 -346.582 1446
   vertex -452.506 -346.582 1446.5
   vertex -453.223 -347.03 1446.5
  endloop
 endfacet
 facet normal 0.526168 -0.841216 -0.124509
  outer loop
   vertex -453.223 -347.03 1446.5
   vertex -452.506 -346.582 1446.5
   vertex -453.223 -347.104 1447
  endloop
 endfacet
 facet normal 0.809456 0.58718 -0
  outer loop
   vertex -451.572 -342.773 1447
   vertex -451.953 -342.249 1446.5
   vertex -451.953 -342.249 1447
  endloop
 endfacet
 facet normal 0.707107 0.707107 -0
  outer loop
   vertex -451.953 -342.249 1447
   vertex -451.953 -342.249 1446.5
   vertex -452.698 -341.504 1447
  endloop
 endfacet
 facet normal 0.707107 0.707107 -0
  outer loop
   vertex -451.953 -342.249 1447
   vertex -452.698 -341.504 1447
   vertex -452.698 -341.504 1447.5
  endloop
 endfacet
 facet normal 0.809456 0.58718 0
  outer loop
   vertex -451.572 -342.773 1446.5
   vertex -451.953 -342.249 1446.5
   vertex -451.572 -342.773 1447
  endloop
 endfacet
 facet normal 0.989358 -0.145502 0
  outer loop
   vertex -451.318 -344.043 1446.5
   vertex -451.318 -344.043 1447
   vertex -451.505 -345.313 1446.5
  endloop
 endfacet
 facet normal 0.985431 -0.0874807 -0.145854
  outer loop
   vertex -451.505 -345.313 1446.5
   vertex -451.318 -344.043 1447
   vertex -451.431 -345.313 1447
  endloop
 endfacet
 facet normal 0.881215 -0.454366 -0.130429
  outer loop
   vertex -451.505 -345.313 1446.5
   vertex -451.431 -345.313 1447
   vertex -451.953 -346.325 1447
  endloop
 endfacet
 facet normal 0.887786 -0.457754 0.0479434
  outer loop
   vertex -451.953 -346.325 1447
   vertex -451.431 -345.313 1447
   vertex -451.953 -346.273 1447.5
  endloop
 endfacet
 facet normal -0.917893 -0.383992 -0.100114
  outer loop
   vertex -456.342 -345.313 1446.5
   vertex -455.811 -346.582 1446.5
   vertex -456.396 -345.313 1447
  endloop
 endfacet
 facet normal -0.892102 -0.26836 -0.363506
  outer loop
   vertex -456.396 -345.313 1447
   vertex -455.811 -346.582 1446.5
   vertex -456.015 -346.582 1447
  endloop
 endfacet
 facet normal -0.957611 -0.288066 0
  outer loop
   vertex -456.396 -345.313 1447
   vertex -456.015 -346.582 1447
   vertex -456.396 -345.313 1447.5
  endloop
 endfacet
 facet normal -0.957611 -0.288066 0
  outer loop
   vertex -456.396 -345.313 1447.5
   vertex -456.015 -346.582 1447
   vertex -456.015 -346.582 1447.5
  endloop
 endfacet
 facet normal -0.957611 -0.288066 0
  outer loop
   vertex -456.396 -345.313 1447.5
   vertex -456.015 -346.582 1447.5
   vertex -456.396 -345.313 1448
  endloop
 endfacet
 facet normal -0.957611 -0.288066 0
  outer loop
   vertex -456.396 -345.313 1448
   vertex -456.015 -346.582 1447.5
   vertex -456.015 -346.582 1448
  endloop
 endfacet
 facet normal -0.95243 -0.286507 0.103881
  outer loop
   vertex -456.396 -345.313 1448
   vertex -456.015 -346.582 1448
   vertex -456.342 -345.313 1448.5
  endloop
 endfacet
 facet normal -0.863533 -0.361251 0.351864
  outer loop
   vertex -456.342 -345.313 1448.5
   vertex -456.015 -346.582 1448
   vertex -455.811 -346.582 1448.5
  endloop
 endfacet
 facet normal -0.896262 -0.374944 0.236921
  outer loop
   vertex -456.342 -345.313 1448.5
   vertex -455.811 -346.582 1448.5
   vertex -456.21 -345.313 1449
  endloop
 endfacet
 facet normal -0.632683 -0.447679 0.631898
  outer loop
   vertex -456.21 -345.313 1449
   vertex -455.811 -346.582 1448.5
   vertex -455.762 -346.582 1448.55
  endloop
 endfacet
 facet normal -0.710605 -0.444473 0.545421
  outer loop
   vertex -456.21 -345.313 1449
   vertex -455.762 -346.582 1448.55
   vertex -455.762 -346.029 1449
  endloop
 endfacet
 facet normal 0.442274 -0.857765 -0.26198
  outer loop
   vertex -452.506 -346.582 1446.5
   vertex -452.21 -346.582 1447
   vertex -453.223 -347.104 1447
  endloop
 endfacet
 facet normal 0.458191 -0.888634 0.0197426
  outer loop
   vertex -453.223 -347.104 1447
   vertex -452.21 -346.582 1447
   vertex -453.223 -347.093 1447.5
  endloop
 endfacet
 facet normal 0.809456 0.58718 -0
  outer loop
   vertex -451.572 -342.773 1447.5
   vertex -451.953 -342.249 1447
   vertex -451.953 -342.249 1447.5
  endloop
 endfacet
 facet normal 0.707107 0.707107 -0
  outer loop
   vertex -451.953 -342.249 1447.5
   vertex -451.953 -342.249 1447
   vertex -452.698 -341.504 1447.5
  endloop
 endfacet
 facet normal 0.707107 0.707107 -0
  outer loop
   vertex -451.953 -342.249 1447.5
   vertex -452.698 -341.504 1447.5
   vertex -452.698 -341.504 1448
  endloop
 endfacet
 facet normal 0.809456 0.58718 0
  outer loop
   vertex -451.572 -342.773 1447
   vertex -451.953 -342.249 1447
   vertex -451.572 -342.773 1447.5
  endloop
 endfacet
 facet normal 0.996083 -0.0884263 0
  outer loop
   vertex -451.318 -344.043 1447
   vertex -451.318 -344.043 1447.5
   vertex -451.431 -345.313 1447
  endloop
 endfacet
 facet normal 0.995035 -0.0970398 0.0221065
  outer loop
   vertex -451.431 -345.313 1447
   vertex -451.318 -344.043 1447.5
   vertex -451.442 -345.313 1447.5
  endloop
 endfacet
 facet normal 0.882611 -0.469695 0.0196088
  outer loop
   vertex -451.431 -345.313 1447
   vertex -451.442 -345.313 1447.5
   vertex -451.953 -346.273 1447.5
  endloop
 endfacet
 facet normal 0.881714 -0.469218 -0.0491442
  outer loop
   vertex -451.953 -346.273 1447.5
   vertex -451.442 -345.313 1447.5
   vertex -451.953 -346.325 1448
  endloop
 endfacet
 facet normal 0.469218 -0.881714 0.0491442
  outer loop
   vertex -452.21 -346.582 1447
   vertex -452.263 -346.582 1447.5
   vertex -453.223 -347.093 1447.5
  endloop
 endfacet
 facet normal 0.469695 -0.882611 -0.0196088
  outer loop
   vertex -453.223 -347.093 1447.5
   vertex -452.263 -346.582 1447.5
   vertex -453.223 -347.104 1448
  endloop
 endfacet
 facet normal 0.809456 0.58718 -0
  outer loop
   vertex -451.572 -342.773 1448
   vertex -451.953 -342.249 1447.5
   vertex -451.953 -342.249 1448
  endloop
 endfacet
 facet normal 0.707107 0.707107 -0
  outer loop
   vertex -451.953 -342.249 1448
   vertex -451.953 -342.249 1447.5
   vertex -452.698 -341.504 1448
  endloop
 endfacet
 facet normal 0.707107 0.707107 -0
  outer loop
   vertex -451.953 -342.249 1448
   vertex -452.698 -341.504 1448
   vertex -452.698 -341.504 1448.5
  endloop
 endfacet
 facet normal 0.809456 0.58718 0
  outer loop
   vertex -451.572 -342.773 1447.5
   vertex -451.953 -342.249 1447.5
   vertex -451.572 -342.773 1448
  endloop
 endfacet
 facet normal 0.995278 -0.0970635 0
  outer loop
   vertex -451.318 -344.043 1447.5
   vertex -451.318 -344.043 1448
   vertex -451.442 -345.313 1447.5
  endloop
 endfacet
 facet normal 0.995839 -0.0884046 -0.0221244
  outer loop
   vertex -451.442 -345.313 1447.5
   vertex -451.318 -344.043 1448
   vertex -451.431 -345.313 1448
  endloop
 endfacet
 facet normal 0.888634 -0.458191 -0.0197426
  outer loop
   vertex -451.442 -345.313 1447.5
   vertex -451.431 -345.313 1448
   vertex -451.953 -346.325 1448
  endloop
 endfacet
 facet normal 0.857765 -0.442274 0.26198
  outer loop
   vertex -451.953 -346.325 1448
   vertex -451.431 -345.313 1448
   vertex -451.953 -346.029 1448.5
  endloop
 endfacet
 facet normal 0.457754 -0.887786 -0.0479434
  outer loop
   vertex -452.263 -346.582 1447.5
   vertex -452.21 -346.582 1448
   vertex -453.223 -347.104 1448
  endloop
 endfacet
 facet normal 0.454366 -0.881215 0.130429
  outer loop
   vertex -453.223 -347.104 1448
   vertex -452.21 -346.582 1448
   vertex -453.223 -347.03 1448.5
  endloop
 endfacet
 facet normal 0.809456 0.58718 -0
  outer loop
   vertex -451.572 -342.773 1448.5
   vertex -451.953 -342.249 1448
   vertex -451.953 -342.249 1448.5
  endloop
 endfacet
 facet normal 0.707107 0.707107 -0
  outer loop
   vertex -451.953 -342.249 1448.5
   vertex -451.953 -342.249 1448
   vertex -452.698 -341.504 1448.5
  endloop
 endfacet
 facet normal 0.707107 0.707107 -0
  outer loop
   vertex -451.953 -342.249 1448.5
   vertex -452.698 -341.504 1448.5
   vertex -452.698 -341.504 1449
  endloop
 endfacet
 facet normal 0.809456 0.58718 0
  outer loop
   vertex -451.572 -342.773 1448
   vertex -451.953 -342.249 1448
   vertex -451.572 -342.773 1448.5
  endloop
 endfacet
 facet normal 0.996083 -0.0884263 0
  outer loop
   vertex -451.318 -344.043 1448
   vertex -451.318 -344.043 1448.5
   vertex -451.431 -345.313 1448
  endloop
 endfacet
 facet normal 0.978918 -0.143967 0.14489
  outer loop
   vertex -451.431 -345.313 1448
   vertex -451.318 -344.043 1448.5
   vertex -451.505 -345.313 1448.5
  endloop
 endfacet
 facet normal 0.841216 -0.526168 0.124509
  outer loop
   vertex -451.431 -345.313 1448
   vertex -451.505 -345.313 1448.5
   vertex -451.953 -346.029 1448.5
  endloop
 endfacet
 facet normal 0.815911 -0.51034 0.271741
  outer loop
   vertex -451.953 -346.029 1448.5
   vertex -451.505 -345.313 1448.5
   vertex -451.953 -345.763 1449
  endloop
 endfacet
 facet normal 0.505922 -0.808848 0.299681
  outer loop
   vertex -452.21 -346.582 1448
   vertex -452.506 -346.582 1448.5
   vertex -453.223 -347.03 1448.5
  endloop
 endfacet
 facet normal 0.809456 0.58718 -0
  outer loop
   vertex -451.572 -342.773 1449
   vertex -451.953 -342.249 1448.5
   vertex -451.953 -342.249 1449
  endloop
 endfacet
 facet normal 0.707107 0.707107 -0
  outer loop
   vertex -451.953 -342.249 1449
   vertex -451.953 -342.249 1448.5
   vertex -452.698 -341.504 1449
  endloop
 endfacet
 facet normal 0.703196 0.703196 0.105024
  outer loop
   vertex -451.953 -342.249 1449
   vertex -452.698 -341.504 1449
   vertex -452.773 -341.504 1449.5
  endloop
 endfacet
 facet normal 0.809456 0.58718 0
  outer loop
   vertex -451.572 -342.773 1448.5
   vertex -451.953 -342.249 1448.5
   vertex -451.572 -342.773 1449
  endloop
 endfacet
 facet normal 0.989358 -0.145502 0
  outer loop
   vertex -451.318 -344.043 1448.5
   vertex -451.318 -344.043 1449
   vertex -451.505 -345.313 1448.5
  endloop
 endfacet
 facet normal 0.959925 -0.212937 0.182212
  outer loop
   vertex -451.505 -345.313 1448.5
   vertex -451.318 -344.043 1449
   vertex -451.6 -345.313 1449
  endloop
 endfacet
 facet normal 0.778117 -0.610507 0.147702
  outer loop
   vertex -451.505 -345.313 1448.5
   vertex -451.6 -345.313 1449
   vertex -451.953 -345.763 1449
  endloop
 endfacet
 facet normal 0.722672 -0.567005 0.395284
  outer loop
   vertex -451.953 -345.763 1449
   vertex -451.6 -345.313 1449
   vertex -451.953 -345.414 1449.5
  endloop
 endfacet
 facet normal -0.411305 -0.706611 0.575785
  outer loop
   vertex -455.762 -346.631 1448.5
   vertex -454.492 -346.963 1449
   vertex -455.146 -346.582 1449
  endloop
 endfacet
 facet normal -0.39803 -0.683805 0.611542
  outer loop
   vertex -455.146 -346.582 1449
   vertex -454.492 -346.963 1449
   vertex -454.492 -346.582 1449.43
  endloop
 endfacet
 facet normal -0.382817 0.915083 -0.126785
  outer loop
   vertex -454.492 -340.993 1449
   vertex -455.762 -341.455 1449.5
   vertex -454.492 -340.924 1449.5
  endloop
 endfacet
 facet normal -0.361251 0.863533 -0.351864
  outer loop
   vertex -454.492 -340.924 1449.5
   vertex -455.762 -341.455 1449.5
   vertex -455.762 -341.251 1450
  endloop
 endfacet
 facet normal -0.286507 0.95243 -0.103881
  outer loop
   vertex -454.492 -340.924 1449.5
   vertex -455.762 -341.251 1450
   vertex -454.492 -340.869 1450
  endloop
 endfacet
 facet normal -0.288066 0.957611 0
  outer loop
   vertex -454.492 -340.869 1450
   vertex -455.762 -341.251 1450
   vertex -455.762 -341.251 1450.5
  endloop
 endfacet
 facet normal -0.248312 0.962969 0.105031
  outer loop
   vertex -454.492 -340.869 1450
   vertex -455.762 -341.251 1450.5
   vertex -454.492 -340.924 1450.5
  endloop
 endfacet
 facet normal -0.249693 0.968325 0
  outer loop
   vertex -454.492 -340.924 1450.5
   vertex -455.762 -341.251 1450.5
   vertex -455.762 -341.251 1451
  endloop
 endfacet
 facet normal -0.147029 0.956285 0.252787
  outer loop
   vertex -454.492 -340.924 1450.5
   vertex -455.762 -341.251 1451
   vertex -454.492 -341.056 1451
  endloop
 endfacet
 facet normal -0.124062 0.806908 0.577502
  outer loop
   vertex -454.492 -341.056 1451
   vertex -455.762 -341.251 1451
   vertex -454.492 -341.414 1451.5
  endloop
 endfacet
 facet normal 0.505865 0.701468 0.502039
  outer loop
   vertex -454.492 -341.056 1451
   vertex -454.492 -341.414 1451.5
   vertex -454.367 -341.504 1451.5
  endloop
 endfacet
 facet normal 0.326917 0.453327 0.829229
  outer loop
   vertex -454.367 -341.504 1451.5
   vertex -454.492 -341.414 1451.5
   vertex -454.492 -341.504 1451.55
  endloop
 endfacet
 facet normal 0.793816 0.55748 0.243047
  outer loop
   vertex -451.738 -342.773 1449.5
   vertex -451.953 -342.249 1449
   vertex -451.953 -342.467 1449.5
  endloop
 endfacet
 facet normal 0.732814 0.623729 0.27193
  outer loop
   vertex -451.953 -342.467 1449.5
   vertex -451.953 -342.249 1449
   vertex -452.773 -341.504 1449.5
  endloop
 endfacet
 facet normal 0.581334 0.494798 0.64593
  outer loop
   vertex -451.953 -342.467 1449.5
   vertex -452.773 -341.504 1449.5
   vertex -452.248 -342.773 1450
  endloop
 endfacet
 facet normal 0.859147 0.450721 0.242317
  outer loop
   vertex -452.248 -342.773 1450
   vertex -452.773 -341.504 1449.5
   vertex -452.914 -341.504 1450
  endloop
 endfacet
 facet normal 0.804384 0.421992 0.418197
  outer loop
   vertex -452.248 -342.773 1450
   vertex -452.914 -341.504 1450
   vertex -453.174 -341.504 1450.5
  endloop
 endfacet
 facet normal 0.781966 0.567239 0.258396
  outer loop
   vertex -451.572 -342.773 1449
   vertex -451.953 -342.249 1449
   vertex -451.738 -342.773 1449.5
  endloop
 endfacet
 facet normal -0.915083 0.382817 -0.126785
  outer loop
   vertex -456.273 -342.773 1449
   vertex -456.342 -342.773 1449.5
   vertex -455.811 -341.504 1449.5
  endloop
 endfacet
 facet normal -0.863533 0.361251 -0.351864
  outer loop
   vertex -455.811 -341.504 1449.5
   vertex -456.342 -342.773 1449.5
   vertex -456.015 -341.504 1450
  endloop
 endfacet
 facet normal 0.953457 -0.211502 0.214912
  outer loop
   vertex -451.318 -344.043 1449
   vertex -451.431 -344.043 1449.5
   vertex -451.6 -345.313 1449
  endloop
 endfacet
 facet normal 0.85012 -0.286997 0.441508
  outer loop
   vertex -451.6 -345.313 1449
   vertex -451.431 -344.043 1449.5
   vertex -451.86 -345.313 1449.5
  endloop
 endfacet
 facet normal 0.687238 -0.632705 0.356916
  outer loop
   vertex -451.6 -345.313 1449
   vertex -451.86 -345.313 1449.5
   vertex -451.953 -345.414 1449.5
  endloop
 endfacet
 facet normal 0.540466 -0.49758 0.678462
  outer loop
   vertex -451.953 -345.414 1449.5
   vertex -451.86 -345.313 1449.5
   vertex -451.953 -345.313 1449.57
  endloop
 endfacet
 facet normal -0.458746 -0.784311 0.417622
  outer loop
   vertex -455.762 -346.029 1449
   vertex -454.492 -346.505 1449.5
   vertex -455.762 -345.763 1449.5
  endloop
 endfacet
 facet normal -0.432595 -0.739601 0.515608
  outer loop
   vertex -455.762 -345.763 1449.5
   vertex -454.492 -346.505 1449.5
   vertex -455.762 -345.414 1450
  endloop
 endfacet
 facet normal -0.665259 -0.61247 0.426979
  outer loop
   vertex -455.762 -345.763 1449.5
   vertex -455.762 -345.414 1450
   vertex -455.855 -345.313 1450
  endloop
 endfacet
 facet normal -0.540466 -0.49758 0.678462
  outer loop
   vertex -455.855 -345.313 1450
   vertex -455.762 -345.414 1450
   vertex -455.762 -345.313 1450.07
  endloop
 endfacet
 facet normal -0.837044 -0.523558 0.158887
  outer loop
   vertex -456.21 -345.313 1449
   vertex -455.762 -346.029 1449
   vertex -456.115 -345.313 1449.5
  endloop
 endfacet
 facet normal -0.747409 -0.586414 0.312248
  outer loop
   vertex -456.115 -345.313 1449.5
   vertex -455.762 -346.029 1449
   vertex -455.762 -345.763 1449.5
  endloop
 endfacet
 facet normal -0.728297 -0.571418 0.37824
  outer loop
   vertex -456.115 -345.313 1449.5
   vertex -455.762 -345.763 1449.5
   vertex -455.855 -345.313 1450
  endloop
 endfacet
 facet normal 0.422826 -0.602078 0.677289
  outer loop
   vertex -452.916 -346.582 1449
   vertex -453.223 -346.582 1449.19
   vertex -453.223 -346.797 1449
  endloop
 endfacet
 facet normal 0.0861451 -0.66192 0.744608
  outer loop
   vertex -453.223 -346.797 1449
   vertex -453.223 -346.582 1449.19
   vertex -454.492 -346.963 1449
  endloop
 endfacet
 facet normal 0.122022 -0.739825 0.661642
  outer loop
   vertex -454.492 -346.582 1449.43
   vertex -454.492 -346.963 1449
   vertex -453.223 -346.582 1449.19
  endloop
 endfacet
 facet normal 0.622566 0.437214 0.649042
  outer loop
   vertex -451.738 -342.773 1449.5
   vertex -451.953 -342.467 1449.5
   vertex -451.953 -342.773 1449.71
  endloop
 endfacet
 facet normal 0.63697 0.430689 0.639356
  outer loop
   vertex -451.953 -342.773 1449.71
   vertex -451.953 -342.467 1449.5
   vertex -452.248 -342.773 1450
  endloop
 endfacet
 facet normal 0.695405 0.170863 0.69801
  outer loop
   vertex -451.953 -342.773 1449.71
   vertex -452.248 -342.773 1450
   vertex -451.953 -343.972 1450
  endloop
 endfacet
 facet normal 0.632586 0.155428 0.758734
  outer loop
   vertex -451.953 -343.972 1450
   vertex -452.248 -342.773 1450
   vertex -452.535 -344.043 1450.5
  endloop
 endfacet
 facet normal 0.633794 0.148378 0.759137
  outer loop
   vertex -451.953 -343.972 1450
   vertex -452.535 -344.043 1450.5
   vertex -451.953 -344.043 1450.01
  endloop
 endfacet
 facet normal 0.624562 -0.224276 0.748079
  outer loop
   vertex -451.953 -344.043 1450.01
   vertex -452.535 -344.043 1450.5
   vertex -451.953 -344.089 1450
  endloop
 endfacet
 facet normal 0.557754 -0.238357 0.795045
  outer loop
   vertex -451.953 -344.043 1450.01
   vertex -451.953 -344.089 1450
   vertex -451.933 -344.043 1450
  endloop
 endfacet
 facet normal -0.95243 0.286507 -0.103881
  outer loop
   vertex -456.342 -342.773 1449.5
   vertex -456.396 -342.773 1450
   vertex -456.015 -341.504 1450
  endloop
 endfacet
 facet normal -0.957611 0.288066 0
  outer loop
   vertex -456.015 -341.504 1450
   vertex -456.396 -342.773 1450
   vertex -456.015 -341.504 1450.5
  endloop
 endfacet
 facet normal 0.649147 0.18086 0.738849
  outer loop
   vertex -451.953 -342.773 1449.71
   vertex -451.953 -343.972 1450
   vertex -451.933 -344.043 1450
  endloop
 endfacet
 facet normal 0.567094 0.157999 0.808357
  outer loop
   vertex -451.933 -344.043 1450
   vertex -451.953 -343.972 1450
   vertex -451.953 -344.043 1450.01
  endloop
 endfacet
 facet normal 0.681573 0.17483 0.710559
  outer loop
   vertex -451.953 -342.773 1449.71
   vertex -451.933 -344.043 1450
   vertex -451.738 -342.773 1449.5
  endloop
 endfacet
 facet normal 0.150543 -0.707158 0.690843
  outer loop
   vertex -454.492 -346.505 1449.5
   vertex -453.223 -346.235 1449.5
   vertex -454.492 -346.017 1450
  endloop
 endfacet
 facet normal 0.131846 -0.741189 0.658221
  outer loop
   vertex -454.492 -346.017 1450
   vertex -453.223 -346.235 1449.5
   vertex -453.223 -345.791 1450
  endloop
 endfacet
 facet normal 0.126191 -0.709397 0.69342
  outer loop
   vertex -454.492 -346.017 1450
   vertex -453.223 -345.791 1450
   vertex -454.492 -345.528 1450.5
  endloop
 endfacet
 facet normal 0.124434 -0.712474 0.690578
  outer loop
   vertex -454.492 -345.528 1450.5
   vertex -453.223 -345.791 1450
   vertex -453.223 -345.313 1450.49
  endloop
 endfacet
 facet normal -0.321534 -0.677326 0.661699
  outer loop
   vertex -454.492 -346.505 1449.5
   vertex -454.492 -346.017 1450
   vertex -455.762 -345.414 1450
  endloop
 endfacet
 facet normal -0.321455 -0.677159 0.661908
  outer loop
   vertex -455.762 -345.414 1450
   vertex -454.492 -346.017 1450
   vertex -454.492 -345.528 1450.5
  endloop
 endfacet
 facet normal -0.336175 -0.614733 0.713505
  outer loop
   vertex -455.762 -345.414 1450
   vertex -454.492 -345.528 1450.5
   vertex -454.886 -345.313 1450.5
  endloop
 endfacet
 facet normal 0.772414 0.356313 0.525754
  outer loop
   vertex -452.248 -342.773 1450
   vertex -453.174 -341.504 1450.5
   vertex -452.588 -342.773 1450.5
  endloop
 endfacet
 facet normal 0.824494 0.380338 0.41899
  outer loop
   vertex -452.588 -342.773 1450.5
   vertex -453.174 -341.504 1450.5
   vertex -452.842 -342.773 1451
  endloop
 endfacet
 facet normal 0.890885 0.0368775 0.452729
  outer loop
   vertex -452.588 -342.773 1450.5
   vertex -452.842 -342.773 1451
   vertex -452.535 -344.043 1450.5
  endloop
 endfacet
 facet normal 0.702255 -0.10755 0.703755
  outer loop
   vertex -452.535 -344.043 1450.5
   vertex -452.842 -342.773 1451
   vertex -453.036 -344.043 1451
  endloop
 endfacet
 facet normal -0.957611 0.288066 0
  outer loop
   vertex -456.396 -342.773 1450
   vertex -456.396 -342.773 1450.5
   vertex -456.015 -341.504 1450.5
  endloop
 endfacet
 facet normal -0.957611 0.288066 0
  outer loop
   vertex -456.015 -341.504 1450.5
   vertex -456.396 -342.773 1450.5
   vertex -456.015 -341.504 1451
  endloop
 endfacet
 facet normal 0.826188 0.0341994 0.562356
  outer loop
   vertex -452.248 -342.773 1450
   vertex -452.588 -342.773 1450.5
   vertex -452.535 -344.043 1450.5
  endloop
 endfacet
 facet normal 0.466968 -0.634957 0.615443
  outer loop
   vertex -452.572 -345.313 1450
   vertex -453.223 -345.313 1450.49
   vertex -453.223 -345.791 1450
  endloop
 endfacet
 facet normal -0.364897 -0.550617 0.75078
  outer loop
   vertex -454.886 -345.313 1450.5
   vertex -455.762 -345.313 1450.07
   vertex -455.762 -345.414 1450
  endloop
 endfacet
 facet normal 0.71238 0.414663 0.566189
  outer loop
   vertex -453.223 -341.504 1450.55
   vertex -453.223 -342.119 1451
   vertex -452.842 -342.773 1451
  endloop
 endfacet
 facet normal 0.640788 0.372991 0.67102
  outer loop
   vertex -452.842 -342.773 1451
   vertex -453.223 -342.119 1451
   vertex -453.223 -342.773 1451.36
  endloop
 endfacet
 facet normal 0.686796 -0.105182 0.719199
  outer loop
   vertex -452.842 -342.773 1451
   vertex -453.223 -342.773 1451.36
   vertex -453.036 -344.043 1451
  endloop
 endfacet
 facet normal 0.642041 0.420223 0.641245
  outer loop
   vertex -453.223 -341.504 1450.55
   vertex -452.842 -342.773 1451
   vertex -453.174 -341.504 1450.5
  endloop
 endfacet
 facet normal -0.957611 0.288066 0
  outer loop
   vertex -456.396 -342.773 1450.5
   vertex -456.396 -342.773 1451
   vertex -456.015 -341.504 1451
  endloop
 endfacet
 facet normal -0.917133 0.275889 0.287668
  outer loop
   vertex -456.015 -341.504 1451
   vertex -456.396 -342.773 1451
   vertex -456.24 -342.773 1451.5
  endloop
 endfacet
 facet normal -0.811168 0.333116 0.480667
  outer loop
   vertex -456.015 -341.504 1451
   vertex -456.24 -342.773 1451.5
   vertex -455.762 -341.61 1451.5
  endloop
 endfacet
 facet normal -0.52592 0.215975 0.822656
  outer loop
   vertex -455.762 -341.61 1451.5
   vertex -456.24 -342.773 1451.5
   vertex -455.762 -342.773 1451.81
  endloop
 endfacet
 facet normal 0.0932284 -0.578287 0.810489
  outer loop
   vertex -454.492 -345.313 1450.64
   vertex -453.26 -345.313 1450.5
   vertex -454.492 -344.81 1451
  endloop
 endfacet
 facet normal 0.145441 -0.495712 0.856222
  outer loop
   vertex -454.492 -344.81 1451
   vertex -453.26 -345.313 1450.5
   vertex -453.223 -345.302 1450.5
  endloop
 endfacet
 facet normal 0.181026 -0.431681 0.883675
  outer loop
   vertex -454.492 -344.81 1451
   vertex -453.223 -345.302 1450.5
   vertex -453.223 -344.278 1451
  endloop
 endfacet
 facet normal -0.360559 -0.541749 0.759279
  outer loop
   vertex -454.492 -345.313 1450.64
   vertex -454.492 -344.81 1451
   vertex -455.762 -344.666 1450.5
  endloop
 endfacet
 facet normal -0.292329 -0.809754 0.508765
  outer loop
   vertex -455.762 -344.666 1450.5
   vertex -454.492 -344.81 1451
   vertex -455.762 -344.352 1451
  endloop
 endfacet
 facet normal -0.674251 -0.62532 0.392886
  outer loop
   vertex -455.762 -344.666 1450.5
   vertex -455.762 -344.352 1451
   vertex -456.048 -344.043 1451
  endloop
 endfacet
 facet normal -0.657913 -0.610168 0.441413
  outer loop
   vertex -456.048 -344.043 1451
   vertex -455.762 -344.352 1451
   vertex -455.762 -344.043 1451.43
  endloop
 endfacet
 facet normal -0.806704 -0.548165 0.22078
  outer loop
   vertex -456.048 -344.043 1451
   vertex -456.185 -344.043 1450.5
   vertex -455.762 -344.666 1450.5
  endloop
 endfacet
 facet normal -0.0945155 0.846291 0.52427
  outer loop
   vertex -455.762 -341.504 1451.42
   vertex -455.3 -341.504 1451.5
   vertex -454.492 -341.414 1451.5
  endloop
 endfacet
 facet normal -0.0534954 0.478997 0.876185
  outer loop
   vertex -454.492 -341.414 1451.5
   vertex -455.3 -341.504 1451.5
   vertex -454.492 -341.504 1451.55
  endloop
 endfacet
 facet normal -0.0943442 0.851117 0.516429
  outer loop
   vertex -455.762 -341.504 1451.42
   vertex -454.492 -341.414 1451.5
   vertex -455.762 -341.251 1451
  endloop
 endfacet
 facet normal 0.316111 -0.423002 0.849202
  outer loop
   vertex -453.223 -344.043 1451.12
   vertex -454.492 -344.223 1451.5
   vertex -453.223 -344.278 1451
  endloop
 endfacet
 facet normal 0.262291 -0.625469 0.734842
  outer loop
   vertex -453.223 -344.278 1451
   vertex -454.492 -344.223 1451.5
   vertex -454.492 -344.81 1451
  endloop
 endfacet
 facet normal -0.153822 -0.800572 0.579157
  outer loop
   vertex -455.762 -344.043 1451.43
   vertex -455.762 -344.352 1451
   vertex -455.488 -344.043 1451.5
  endloop
 endfacet
 facet normal -0.145326 -0.803988 0.576614
  outer loop
   vertex -455.488 -344.043 1451.5
   vertex -455.762 -344.352 1451
   vertex -454.492 -344.223 1451.5
  endloop
 endfacet
 facet normal -0.227838 -0.631114 0.741475
  outer loop
   vertex -454.492 -344.223 1451.5
   vertex -455.762 -344.352 1451
   vertex -454.492 -344.81 1451
  endloop
 endfacet
 facet normal 0.28998 -0.217409 0.932011
  outer loop
   vertex -454.195 -344.043 1451.5
   vertex -454.492 -342.773 1451.89
   vertex -454.492 -344.043 1451.59
  endloop
 endfacet
 facet normal -0.0636395 -0.22671 0.971881
  outer loop
   vertex -454.492 -344.043 1451.59
   vertex -454.492 -342.773 1451.89
   vertex -455.762 -342.773 1451.81
  endloop
 endfacet
 facet normal -0.0912578 -0.252869 0.963187
  outer loop
   vertex -454.492 -344.043 1451.59
   vertex -455.762 -342.773 1451.81
   vertex -455.762 -343.937 1451.5
  endloop
 endfacet
 facet normal -0.52592 -0.215975 0.822656
  outer loop
   vertex -455.762 -343.937 1451.5
   vertex -455.762 -342.773 1451.81
   vertex -456.24 -342.773 1451.5
  endloop
 endfacet
endsolid
